<svg width="59" height="59" viewBox="0 0 59 59" fill="none" xmlns="http://www.w3.org/2000/svg">
<g filter="url(#filter0_d_33_540)">
<circle cx="29.116" cy="25.3062" r="25" fill="white"/>
</g>
<path d="M19.2886 24.7889H22.3921V27.8923H19.2886V24.7889Z" fill="url(#paint0_linear_33_540)"/>
<path d="M19.2885 21.6855H22.3919V20.4621L21.3254 21.3509L19.9572 19.9823L20.6887 19.2508L21.3895 19.9512L22.3919 19.116V18.5821H19.2885L19.2885 21.6855Z" fill="url(#paint1_linear_33_540)"/>
<path d="M35.8172 14.7349C36.098 14.5001 36.4016 14.2916 36.7244 14.1138C36.3693 13.0881 35.4013 12.3753 34.2883 12.3753H30.6677V13.4098H34.2883C35.0663 13.4098 35.7061 13.987 35.8172 14.7349Z" fill="url(#paint2_linear_33_540)"/>
<path d="M19.2886 30.9958H22.3921V34.0992H19.2886V30.9958Z" fill="url(#paint3_linear_33_540)"/>
<path d="M21.8748 14.4441H29.1161C29.4011 14.4441 29.6334 14.2118 29.6334 13.9269V11.8579C29.6334 11.573 29.4011 11.3407 29.1161 11.3407H27.5644V10.8235C27.5644 10.5385 27.3321 10.3062 27.0472 10.3062H23.9437C23.6588 10.3062 23.4265 10.5385 23.4265 10.8235V11.3407H21.8748C21.5898 11.3407 21.3575 11.573 21.3575 11.8579V13.9269C21.3575 14.2118 21.5898 14.4441 21.8748 14.4441Z" fill="url(#paint4_linear_33_540)"/>
<path d="M41.3229 31.3859L41.0126 31.2504V23.5001L41.3229 23.3645C43.0194 22.6228 44.116 20.9485 44.116 19.0994C44.116 16.5328 42.0274 14.4442 39.4609 14.4442C36.8943 14.4442 34.8057 16.5328 34.8057 19.0994C34.8057 20.9485 35.9023 22.6228 37.5988 23.3645L37.9092 23.5001V31.2504L37.5988 31.3859C35.9023 32.1276 34.8057 33.8019 34.8057 35.651C34.8057 38.2176 36.8943 40.3062 39.4609 40.3062C42.0274 40.3062 44.116 38.2176 44.116 35.651C44.116 33.8019 43.0194 32.1276 41.3229 31.3859ZM39.4609 33.0649C38.0348 33.0649 36.8747 34.2249 36.8747 35.651H35.8402C35.8402 33.6546 37.4645 32.0304 39.4609 32.0304V33.0649ZM39.4609 16.5132C38.0348 16.5132 36.8747 17.6733 36.8747 19.0994H35.8402C35.8402 17.103 37.4645 15.4787 39.4609 15.4787V16.5132Z" fill="url(#paint5_linear_33_540)"/>
<path d="M34.9577 39.1149C34.7501 39.2159 34.5231 39.2717 34.2883 39.2717H16.7022C15.8466 39.2717 15.1504 38.5756 15.1504 37.72V14.9615C15.1504 14.106 15.8466 13.4098 16.7022 13.4098H20.3228V12.3753H16.7022C15.2761 12.3753 14.116 13.5354 14.116 14.9615V37.72C14.116 39.1461 15.2761 40.3062 16.7022 40.3062H34.2883C34.791 40.3062 35.269 40.1589 35.6811 39.8924C35.4163 39.656 35.1743 39.3964 34.9577 39.115V39.1149Z" fill="url(#paint6_linear_33_540)"/>
<path d="M16.1852 14.9614V37.7199C16.1852 38.0048 16.4175 38.2371 16.7024 38.2371H34.2886C34.3269 38.2371 34.3594 38.23 34.3925 38.2226C33.9983 37.4493 33.7713 36.5769 33.7713 35.6509C33.7713 34.4617 34.1525 33.34 34.8058 32.4043V22.3456C34.1525 21.41 33.7713 20.2876 33.7713 19.099C33.7713 17.8856 34.1562 16.7627 34.8058 15.8379V14.9611C34.8058 14.6762 34.5735 14.4439 34.2885 14.4439H30.5728C30.3587 15.0445 29.7897 15.4784 29.1162 15.4784H21.8748C21.2015 15.4784 20.6325 15.0445 20.4182 14.4439H16.7024C16.4175 14.4439 16.1852 14.6762 16.1852 14.9611L16.1852 14.9614ZM32.7368 35.1337H31.7024V34.0992H32.7368V35.1337ZM32.7368 28.9268H31.7024V27.8923H32.7368V28.9268ZM32.7368 22.7199H31.7024V21.6855H32.7368V22.7199ZM25.4955 17.5476H32.7368V18.582H25.4955V17.5476ZM25.4955 19.6165H32.7368V20.651H25.4955V19.6165ZM25.4955 21.6855H30.6679V22.7199H25.4955V21.6855ZM25.4955 23.7544H32.7368V24.7889H25.4955V23.7544ZM25.4955 25.8234H32.7368V26.8579H25.4955V25.8234ZM25.4955 27.8923H30.6679V28.9268H25.4955V27.8923ZM25.4955 29.9613H32.7368V30.9958H25.4955V29.9613ZM25.4955 32.0302H32.7368V33.0647H25.4955V32.0302ZM25.4955 34.0992H30.6679V35.1337H25.4955V34.0992ZM18.2541 17.5476H23.4265V18.2537L24.1299 17.6676L24.7919 18.4621L23.4262 19.6001L23.4265 22.7199H18.2541L18.2541 17.5476ZM18.2541 23.7544H23.4265V28.9268H18.2541V23.7544ZM18.2541 29.9613H23.4265V35.1337H18.2541V29.9613Z" fill="url(#paint7_linear_33_540)"/>
<defs>
<filter id="filter0_d_33_540" x="0.115967" y="0.306213" width="58" height="58" filterUnits="userSpaceOnUse" color-interpolation-filters="sRGB">
<feFlood flood-opacity="0" result="BackgroundImageFix"/>
<feColorMatrix in="SourceAlpha" type="matrix" values="0 0 0 0 0 0 0 0 0 0 0 0 0 0 0 0 0 0 127 0" result="hardAlpha"/>
<feOffset dy="4"/>
<feGaussianBlur stdDeviation="2"/>
<feComposite in2="hardAlpha" operator="out"/>
<feColorMatrix type="matrix" values="0 0 0 0 0.729412 0 0 0 0 0.0941176 0 0 0 0 0.215686 0 0 0 0.03 0"/>
<feBlend mode="normal" in2="BackgroundImageFix" result="effect1_dropShadow_33_540"/>
<feBlend mode="normal" in="SourceGraphic" in2="effect1_dropShadow_33_540" result="shape"/>
</filter>
<linearGradient id="paint0_linear_33_540" x1="20.8404" y1="24.7889" x2="20.8404" y2="27.8923" gradientUnits="userSpaceOnUse">
<stop stop-color="#2E135D"/>
<stop offset="1" stop-color="#BA1837"/>
</linearGradient>
<linearGradient id="paint1_linear_33_540" x1="20.8402" y1="18.5821" x2="20.8402" y2="21.6855" gradientUnits="userSpaceOnUse">
<stop stop-color="#2E135D"/>
<stop offset="1" stop-color="#BA1837"/>
</linearGradient>
<linearGradient id="paint2_linear_33_540" x1="33.6961" y1="12.3753" x2="33.6961" y2="14.7349" gradientUnits="userSpaceOnUse">
<stop stop-color="#2E135D"/>
<stop offset="1" stop-color="#BA1837"/>
</linearGradient>
<linearGradient id="paint3_linear_33_540" x1="20.8404" y1="30.9958" x2="20.8404" y2="34.0992" gradientUnits="userSpaceOnUse">
<stop stop-color="#2E135D"/>
<stop offset="1" stop-color="#BA1837"/>
</linearGradient>
<linearGradient id="paint4_linear_33_540" x1="25.4955" y1="10.3062" x2="25.4955" y2="14.4441" gradientUnits="userSpaceOnUse">
<stop stop-color="#2E135D"/>
<stop offset="1" stop-color="#BA1837"/>
</linearGradient>
<linearGradient id="paint5_linear_33_540" x1="39.4609" y1="14.4442" x2="39.4609" y2="40.3062" gradientUnits="userSpaceOnUse">
<stop stop-color="#2E135D"/>
<stop offset="1" stop-color="#BA1837"/>
</linearGradient>
<linearGradient id="paint6_linear_33_540" x1="24.8985" y1="12.3753" x2="24.8985" y2="40.3062" gradientUnits="userSpaceOnUse">
<stop stop-color="#2E135D"/>
<stop offset="1" stop-color="#BA1837"/>
</linearGradient>
<linearGradient id="paint7_linear_33_540" x1="25.4955" y1="14.4439" x2="25.4955" y2="38.2371" gradientUnits="userSpaceOnUse">
<stop stop-color="#2E135D"/>
<stop offset="1" stop-color="#BA1837"/>
</linearGradient>
</defs>
</svg>
