<svg width="21" height="26" viewBox="0 0 21 26" fill="none" xmlns="http://www.w3.org/2000/svg">
<path d="M3.55402 0.230603C3.31599 0.230603 3.12318 0.423606 3.12318 0.661442V3.31245H0.452707C0.214679 3.31245 0.0216765 3.50546 0.0214844 3.74349V24.7995C0.0216768 25.0375 0.214679 25.2305 0.452707 25.2305H17.1033C17.3413 25.2305 17.5343 25.0375 17.5343 24.7995V22.1487H20.2033C20.4413 22.1487 20.6341 21.9557 20.6343 21.7178V0.661338C20.6341 0.423503 20.4413 0.230499 20.2033 0.230499L3.55402 0.230603ZM3.98486 1.09247H19.7724V21.2869H17.5343V3.74368C17.5343 3.50565 17.3413 3.31265 17.1033 3.31265H17.1029C17.1029 3.31265 17.1027 3.31265 17.1027 3.31245H3.98457L3.98486 1.09247ZM0.883551 4.17451H16.6716V21.7177C16.6718 21.7187 16.672 21.7198 16.6722 21.721V24.3678H0.883636L0.883551 4.17451ZM8.1298 6.98602H8.12999C7.89196 6.98602 7.69915 7.17902 7.69915 7.41685V8.34414C5.73084 8.55927 4.19105 10.2295 4.19105 12.25C4.19105 14.4157 5.9604 16.1795 8.13018 16.1795C10.1541 16.1795 11.8292 14.6449 12.0454 12.681H12.9765L12.9764 12.6808C13.2144 12.6808 13.4072 12.488 13.4072 12.25C13.4072 9.34723 11.0388 6.98597 8.1299 6.98597L8.1298 6.98602ZM8.56064 7.86946C10.6592 8.07092 12.3208 9.72791 12.5234 11.8192H8.56064V7.86946ZM7.69877 9.2124V12.25H7.69916C7.69916 12.488 7.89197 12.6809 8.13 12.6809H11.1769C10.9679 14.174 9.68826 15.3173 8.13 15.3173C6.42494 15.3173 5.05293 13.9484 5.05293 12.2498C5.05293 10.6971 6.19957 9.42004 7.69896 9.21221L7.69877 9.2124ZM4.29688 18.0202H4.29707C4.18277 18.0202 4.07309 18.0656 3.99227 18.1464C3.91145 18.2273 3.86604 18.3369 3.86604 18.4512C3.86604 18.6893 4.05904 18.8823 4.29707 18.8823H13.2591C13.4971 18.8823 13.6899 18.6893 13.6899 18.4512C13.6899 18.3369 13.6447 18.2273 13.5637 18.1464C13.4829 18.0656 13.3734 18.0202 13.2591 18.0202H4.29688ZM4.29688 20.7517H4.29707C4.05904 20.7517 3.86604 20.9447 3.86604 21.1827C3.86604 21.297 3.91145 21.4067 3.99227 21.4875C4.07309 21.5683 4.18277 21.6137 4.29707 21.6137H13.2591C13.3734 21.6137 13.4829 21.5683 13.5637 21.4875C13.6447 21.4067 13.6901 21.297 13.6899 21.1827C13.6899 20.9447 13.4971 20.7517 13.2591 20.7517H4.29688Z" fill="#3F1358"/>
</svg>
