<svg width="36" height="36" viewBox="0 0 36 36" fill="none" xmlns="http://www.w3.org/2000/svg">
<circle cx="17.7337" cy="17.8754" r="17.4308" fill="#801645" fill-opacity="0.1"/>
<path d="M11.6696 14.8712L13.3005 14.0668V14.2886C13.3005 14.3664 13.3296 14.4415 13.3821 14.4991L14.1829 15.3786H15.624L16.3758 14.4905C16.4235 14.4341 16.4498 14.3625 16.4498 14.2886V14.0654L18.1017 14.8755C18.3637 15.005 18.6035 15.1748 18.8128 15.3786H19.5849C19.2152 14.7034 18.4047 14.3267 18.3684 14.3104L16.4492 13.3691V12.9655C16.7882 12.4634 16.9197 11.8174 16.9891 11.2274C17.0011 11.1254 17.0154 11.023 17.0294 10.9206C17.1221 10.249 17.227 9.48801 16.7368 8.82897C16.3777 8.30276 15.8071 7.95926 15.1741 7.88812C15.0017 7.87068 14.8281 7.87124 14.6558 7.88965C14.0275 7.96415 13.462 8.30665 13.1051 8.82911C12.6148 9.48801 12.7197 10.2495 12.8122 10.921C12.8265 11.0234 12.8404 11.1257 12.8525 11.2273C12.8984 11.7822 13.0537 12.3227 13.3096 12.8173V13.3654L11.3948 14.31C11.3545 14.3295 10.5974 14.7072 10.2489 15.3786H11.0031C11.1957 15.1738 11.4209 15.0024 11.6696 14.8713L11.6696 14.8712ZM15.8221 14.1771L14.9124 15.2517L13.9387 14.1823L13.9389 13.4976C14.1841 13.6566 14.4609 13.7604 14.7503 13.802C14.8701 13.8205 14.992 13.8194 15.1114 13.7989C15.361 13.7605 15.6018 13.6777 15.8222 13.5543L15.8221 14.1771ZM16.4101 10.8353C16.3954 10.9416 16.3807 11.0481 16.3682 11.1542C16.2146 12.4614 15.821 13.0489 15.0092 13.1824H15.0093C14.9556 13.1933 14.9002 13.194 14.8461 13.1844C14.0368 13.0588 13.6263 12.4515 13.4733 11.1538C13.4658 11.0902 13.4567 11.0263 13.4481 10.9623V10.9624C13.5549 10.9803 13.6629 10.9895 13.7713 10.99C14.3761 10.9853 14.9524 10.7321 15.3649 10.2896C15.669 10.5396 16.0796 10.6176 16.4542 10.4965C16.4415 10.6078 16.426 10.7209 16.4103 10.8353L16.4101 10.8353Z" fill="url(#paint0_linear_33_674)"/>
<path d="M27.421 22.5629H27.0696C27.0947 22.4764 27.1078 22.3869 27.1085 22.2969V18.0315C27.1085 17.859 26.9686 17.719 26.796 17.719H24.296C24.1235 17.719 23.9835 17.859 23.9835 18.0315V22.2969C23.9842 22.3869 23.9973 22.4764 24.0224 22.5629H23.0287C23.2374 22.3593 23.3562 22.0807 23.3585 21.7891C23.3609 21.4975 23.2467 21.2169 23.0413 21.0099C22.8359 20.8029 22.5564 20.6866 22.2648 20.6866C21.9732 20.6866 21.6937 20.8029 21.4883 21.0099C21.2829 21.217 21.1687 21.4975 21.1711 21.7891C21.1734 22.0807 21.2921 22.3593 21.5009 22.5629H20.5194C20.5363 22.5002 20.5452 22.4356 20.5461 22.3706V16.8177C20.544 16.5992 20.4554 16.3905 20.2997 16.2372C20.1439 16.084 19.9338 15.9988 19.7153 16.0003H10.1268C9.90829 15.9988 9.69819 16.084 9.54251 16.2372C9.38668 16.3905 9.29809 16.5992 9.29614 16.8177V22.3706C9.29697 22.4356 9.3059 22.5002 9.32278 22.5629H8.04614C7.87357 22.5629 7.73364 22.7029 7.73364 22.8754V24.1254C7.73364 24.298 7.87357 24.4379 8.04614 24.4379H9.29614V27.5629C9.29614 27.7355 9.43607 27.8754 9.60864 27.8754C9.78121 27.8754 9.92114 27.7355 9.92114 27.5629V24.4379H10.5461V27.5629C10.5461 27.7355 10.6861 27.8754 10.8586 27.8754C11.0312 27.8754 11.1711 27.7355 11.1711 27.5629V24.4379H24.2961V27.5629C24.2961 27.7355 24.436 27.8754 24.6086 27.8754C24.7812 27.8754 24.9211 27.7355 24.9211 27.5629V24.4379H25.5461V27.5629C25.5461 27.7355 25.686 27.8754 25.8586 27.8754C26.0312 27.8754 26.1711 27.7355 26.1711 27.5629V24.4379H27.4211C27.5937 24.4379 27.7336 24.298 27.7336 24.1254V22.8754C27.7336 22.7029 27.5937 22.5629 27.4211 22.5629H27.421ZM22.2646 21.3129C22.4542 21.3129 22.6251 21.4272 22.6976 21.6023C22.7702 21.7775 22.7301 21.9791 22.5961 22.1132C22.462 22.2472 22.2604 22.2873 22.0852 22.2147C21.9101 22.1422 21.7958 21.9713 21.7958 21.7817C21.7961 21.5229 22.0058 21.3132 22.2646 21.313L22.2646 21.3129ZM14.921 18.5004C15.0868 18.5004 15.2458 18.5663 15.363 18.6835C15.4802 18.8007 15.546 18.9597 15.546 19.1254C15.546 19.2912 15.4802 19.4502 15.363 19.5674C15.2458 19.6846 15.0868 19.7504 14.921 19.7504C14.7553 19.7504 14.5963 19.6846 14.4791 19.5674C14.3619 19.4502 14.296 19.2912 14.296 19.1254C14.296 18.9597 14.3619 18.8007 14.4791 18.6835C14.5963 18.5663 14.7553 18.5004 14.921 18.5004ZM9.92105 21.9379H19.921V22.3705C19.9132 22.4838 19.8156 22.5696 19.7023 22.5629H10.1398C10.0265 22.5696 9.92887 22.4838 9.92105 22.3705V21.9379Z" fill="url(#paint1_linear_33_674)"/>
<defs>
<linearGradient id="paint0_linear_33_674" x1="7.21898" y1="11.2819" x2="16.2675" y2="16.4698" gradientUnits="userSpaceOnUse">
<stop stop-color="#32145A"/>
<stop offset="1" stop-color="#BA1837"/>
</linearGradient>
<linearGradient id="paint1_linear_33_674" x1="1.24285" y1="21.3916" x2="17.3177" y2="33.8665" gradientUnits="userSpaceOnUse">
<stop stop-color="#32145A"/>
<stop offset="1" stop-color="#BA1837"/>
</linearGradient>
</defs>
</svg>
