<svg width="58" height="59" viewBox="0 0 58 59" fill="none" xmlns="http://www.w3.org/2000/svg">
<g filter="url(#filter0_d_33_581)">
<circle cx="29" cy="25.6686" r="25" fill="white"/>
</g>
<path d="M29.7295 10.9604V17.4759H36.1963L29.7295 10.9604Z" fill="url(#paint0_linear_33_581)"/>
<path d="M26.8608 34.7367C26.3746 34.2019 26.3746 33.3752 26.8608 32.7919C26.9094 32.7433 30.8477 28.2214 36.0021 28.2214H36.4883V18.448H29.2432C28.9515 18.448 28.757 18.2049 28.757 17.9618V10.6686H14.7053C14.0246 10.6686 13.441 11.2036 13.441 11.8844V39.4531C13.441 40.1339 14.0246 40.6686 14.7053 40.6686H35.2726C35.9533 40.6686 36.4881 40.1339 36.4881 39.4531V39.2586H36.0019C30.8478 39.3072 26.9093 34.7855 26.8606 34.7367L26.8608 34.7367ZM20.394 19.5182C19.1297 19.1292 18.5463 18.5458 18.5463 17.8166C18.5463 17.0387 19.1299 16.4066 20.1509 16.1635V15.191C20.1509 14.9479 20.394 14.7048 20.6371 14.7048C20.9287 14.7048 21.1233 14.9479 21.1233 15.191V16.0663C21.7554 16.0663 22.3388 16.2608 22.7278 16.4553L22.3875 17.2332C21.4151 16.6984 19.7621 16.6984 19.7621 17.7194C19.7621 18.2056 20.1997 18.4487 21.1235 18.7403C22.339 19.1294 22.9711 19.6641 22.9711 20.5394C22.9711 21.4147 22.2904 22.0468 21.1235 22.2411V23.1163C21.1235 23.4079 20.929 23.6025 20.6373 23.6025C20.3942 23.6025 20.1511 23.408 20.1511 23.1163L20.1509 22.2896C19.4216 22.2896 18.7894 22.0951 18.3033 21.9005L18.6435 21.0739C19.7133 21.706 21.7066 21.7546 21.7066 20.5877C21.7069 20.1017 21.3178 19.8098 20.394 19.5181L20.394 19.5182ZM17.3308 25.4986H32.6467C32.9384 25.4986 33.1329 25.6931 33.1329 25.9848C33.1329 26.2279 32.9384 26.471 32.6467 26.471H17.3308C17.0877 26.471 16.8446 26.2279 16.8446 25.9848C16.8446 25.6931 17.0392 25.4986 17.3308 25.4986ZM17.3308 29.0481H28.903C29.1946 29.0481 29.3892 29.2912 29.3892 29.5343C29.3892 29.826 29.1946 30.0205 28.903 30.0205H17.3308C17.0877 30.0205 16.8446 29.826 16.8446 29.5343C16.8446 29.2912 17.0392 29.0481 17.3308 29.0481ZM23.263 37.1682H17.3308C17.0877 37.1682 16.8446 36.9251 16.8446 36.682C16.8446 36.3903 17.0877 36.1958 17.3308 36.1958H23.263C23.5061 36.1958 23.7492 36.3903 23.7492 36.682C23.7492 36.9251 23.5547 37.1682 23.263 37.1682ZM23.263 33.5701H17.3308C17.0877 33.5701 16.8446 33.327 16.8446 33.0839C16.8446 32.7922 17.0877 32.5977 17.3308 32.5977H23.263C23.5061 32.5977 23.7492 32.7922 23.7492 33.0839C23.7492 33.3758 23.5547 33.5701 23.263 33.5701Z" fill="url(#paint1_linear_33_581)"/>
<path d="M36.0015 32.2084C35.1263 32.2084 34.4456 32.8891 34.4456 33.7643C34.4456 34.6395 35.1263 35.3203 36.0015 35.3203C36.8767 35.3203 37.5574 34.6395 37.5574 33.7643C37.5572 32.8891 36.8765 32.2084 36.0015 32.2084Z" fill="url(#paint2_linear_33_581)"/>
<path d="M44.4132 33.4238C43.149 32.1596 39.9399 29.2424 36.0015 29.2424C31.3824 29.2424 27.7358 33.2781 27.5897 33.4724C27.4437 33.6669 27.4437 33.9586 27.5897 34.1045C27.7356 34.299 31.3823 38.3345 36.0015 38.3345C38.8215 38.3345 41.7875 36.8759 44.3158 34.2502L44.413 34.1531C44.5101 34.0559 44.5589 33.91 44.5589 33.764C44.5591 33.6183 44.5106 33.4724 44.4132 33.4238L44.4132 33.4238ZM36.0015 36.2925C34.5915 36.2925 33.4731 35.1741 33.4731 33.7641C33.4731 32.3541 34.5915 31.2358 36.0015 31.2358C37.4114 31.2358 38.5298 32.3541 38.5298 33.7641C38.5298 35.1741 37.4114 36.2925 36.0015 36.2925Z" fill="url(#paint3_linear_33_581)"/>
<defs>
<filter id="filter0_d_33_581" x="0" y="0.66864" width="58" height="58" filterUnits="userSpaceOnUse" color-interpolation-filters="sRGB">
<feFlood flood-opacity="0" result="BackgroundImageFix"/>
<feColorMatrix in="SourceAlpha" type="matrix" values="0 0 0 0 0 0 0 0 0 0 0 0 0 0 0 0 0 0 127 0" result="hardAlpha"/>
<feOffset dy="4"/>
<feGaussianBlur stdDeviation="2"/>
<feComposite in2="hardAlpha" operator="out"/>
<feColorMatrix type="matrix" values="0 0 0 0 0.729412 0 0 0 0 0.0941176 0 0 0 0 0.215686 0 0 0 0.03 0"/>
<feBlend mode="normal" in2="BackgroundImageFix" result="effect1_dropShadow_33_581"/>
<feBlend mode="normal" in="SourceGraphic" in2="effect1_dropShadow_33_581" result="shape"/>
</filter>
<linearGradient id="paint0_linear_33_581" x1="32.9629" y1="10.9604" x2="32.9629" y2="17.4759" gradientUnits="userSpaceOnUse">
<stop stop-color="#34135B"/>
<stop offset="1" stop-color="#BA1837"/>
</linearGradient>
<linearGradient id="paint1_linear_33_581" x1="24.9647" y1="10.6686" x2="24.9647" y2="40.6686" gradientUnits="userSpaceOnUse">
<stop stop-color="#34135B"/>
<stop offset="1" stop-color="#BA1837"/>
</linearGradient>
<linearGradient id="paint2_linear_33_581" x1="36.0015" y1="32.2084" x2="36.0015" y2="35.3203" gradientUnits="userSpaceOnUse">
<stop stop-color="#34135B"/>
<stop offset="1" stop-color="#BA1837"/>
</linearGradient>
<linearGradient id="paint3_linear_33_581" x1="36.0196" y1="29.2424" x2="36.0196" y2="38.3345" gradientUnits="userSpaceOnUse">
<stop stop-color="#34135B"/>
<stop offset="1" stop-color="#BA1837"/>
</linearGradient>
</defs>
</svg>
