<svg width="36" height="35" viewBox="0 0 36 35" fill="none" xmlns="http://www.w3.org/2000/svg">
<circle cx="18.0959" cy="17.4823" r="17.4308" fill="#801645" fill-opacity="0.1"/>
<path d="M21.2128 20.4798C21.0085 20.8375 20.787 21.1781 20.5656 21.5017C21.9962 21.8254 22.8478 22.3874 22.8478 22.8132C22.8478 23.4433 20.9573 24.3971 18.096 24.3971C15.2346 24.3971 13.3441 23.4433 13.3441 22.8132C13.3441 22.3874 14.1957 21.8423 15.6263 21.5017C15.4049 21.1781 15.1835 20.8375 14.9791 20.4798C13.344 20.9056 12.1689 21.672 12.1689 22.8131C12.1689 24.6184 15.1495 25.5722 18.096 25.5722C21.0424 25.5722 24.023 24.6184 24.023 22.8131C24.023 21.6721 22.8478 20.9056 21.2128 20.4798Z" fill="url(#paint0_linear_1_2619)"/>
<path d="M18.6229 22.3364C19.8322 20.5481 22.7276 16.0688 22.7276 14.042C22.7276 11.4703 20.6497 9.39236 18.095 9.39236C15.5402 9.39236 13.4453 11.4702 13.4453 14.042C13.4453 16.0688 16.3578 20.5481 17.567 22.3364C17.8224 22.6941 18.3675 22.6941 18.6229 22.3365L18.6229 22.3364ZM15.9319 14.042C15.9319 12.8498 16.9028 11.879 18.095 11.879C19.2872 11.879 20.258 12.8498 20.258 14.042C20.258 15.2342 19.2872 16.1881 18.095 16.1881C16.9028 16.1881 15.9319 15.2172 15.9319 14.042Z" fill="url(#paint1_linear_1_2619)"/>
<defs>
<linearGradient id="paint0_linear_1_2619" x1="18.096" y1="20.4798" x2="18.096" y2="25.5722" gradientUnits="userSpaceOnUse">
<stop stop-color="#30145A"/>
<stop offset="1" stop-color="#9C173E"/>
</linearGradient>
<linearGradient id="paint1_linear_1_2619" x1="18.0864" y1="9.39236" x2="18.0864" y2="22.6047" gradientUnits="userSpaceOnUse">
<stop stop-color="#30145A"/>
<stop offset="1" stop-color="#9C173E"/>
</linearGradient>
</defs>
</svg>
