<svg width="22" height="26" viewBox="0 0 22 26" fill="none" xmlns="http://www.w3.org/2000/svg">
<path d="M7.36785 4.97684C7.63999 5.01247 7.71018 5.05861 7.83616 5.14704C8.39291 5.53831 8.32165 6.51335 7.65158 6.82691C7.62754 6.83743 7.6035 6.84902 7.58032 6.86061C5.18425 8.01445 3.37278 10.3193 2.83619 12.9298C2.03521 16.8249 4.23618 21.1423 8.05054 22.7017C11.1841 23.9824 15.067 23.2449 17.5246 20.7286C20.0265 18.1662 20.6929 13.9979 19.0603 10.7672C18.1863 9.03922 16.7084 7.62203 14.9603 6.80858C14.9603 6.80858 14.4035 6.46539 14.4035 5.93655C14.4026 5.27788 15.1611 4.77305 15.8583 5.10294C18.9852 6.58364 21.2832 9.66355 21.7994 13.1018C22.3128 16.5218 21.0427 20.1544 18.4457 22.5149C15.3832 25.2975 10.6303 26.0438 6.84962 24.2774C2.63823 22.309 0.0167156 17.4044 0.921652 12.6813C1.5428 9.43894 3.77943 6.54512 6.74742 5.12261C6.90989 5.04577 7.13117 4.96593 7.36769 4.97644L7.36785 4.97684ZM11.385 0.233589C11.5707 0.250974 11.6005 0.268144 11.6793 0.299907C11.9976 0.425895 12.2368 0.730661 12.2802 1.07386C12.2869 1.12773 12.286 1.14125 12.288 1.1949V10.8239C12.2802 11.0469 12.2523 11.1132 12.1957 11.2345C11.9158 11.8297 10.9573 11.9565 10.5456 11.3903C10.4274 11.2268 10.3677 11.0278 10.3619 10.8239V1.19488C10.3677 1.00837 10.3821 0.977681 10.4091 0.896764C10.5207 0.551647 10.8418 0.285287 11.2043 0.239133C11.3198 0.224753 11.3477 0.23248 11.3851 0.233338L11.385 0.233589Z" fill="#3F1358"/>
</svg>
