<svg width="26" height="25" viewBox="0 0 26 25" fill="none" xmlns="http://www.w3.org/2000/svg">
<path d="M18.7863 17.482L18.8956 17.3451C20.5372 15.4301 21.4398 13.0225 21.4398 10.5056C21.4673 4.70562 16.7617 0 10.9616 0C5.18902 0 0.483398 4.70562 0.483398 10.5056C0.483398 16.3055 5.18902 20.9838 10.9616 20.9838C13.3144 20.9838 15.5577 20.2178 17.4182 18.7678L17.5275 18.6858L24.4492 24.2395L25.5161 22.9263L18.7863 17.482ZM10.9618 19.2602C6.11933 19.2602 2.17979 15.3205 2.17979 10.4782C2.17979 5.63579 6.11943 1.69615 10.9618 1.69615C15.8042 1.69615 19.7438 5.63579 19.7438 10.4782C19.7436 15.3481 15.804 19.2602 10.9618 19.2602Z" fill="#3F1358"/>
<path d="M17.4728 9.02827C17.418 8.72732 17.1718 8.67255 17.1718 8.67255L16.0501 8.7819L15.0379 6.40178C14.9558 6.12812 14.6276 5.69052 13.9437 5.63575L8.00692 5.63594H7.97963C7.32298 5.69071 6.99473 6.12829 6.8854 6.40197L5.9005 8.78209L4.83353 8.67274C4.83353 8.67274 4.58735 8.72751 4.53258 9.02846C4.47781 9.32941 4.39575 9.84925 5.05243 10.0134L5.40815 10.0406C4.97037 10.8887 4.47802 12.4208 5.73639 13.7341C5.76368 13.7614 6.06463 14.0078 6.22874 14.0351V14.7738C6.22874 15.0474 6.44763 15.2936 6.7486 15.2936H7.43255C7.70621 15.2936 7.95241 15.0747 7.95241 14.7738V14.0625H13.9986V14.7465C13.9986 15.0201 14.2175 15.2663 14.5184 15.2663H15.2024C15.4761 15.2663 15.7223 15.0474 15.7223 14.7465V14.0077C15.9139 13.953 16.078 13.8436 16.1873 13.7068C17.4732 12.421 17.0629 10.8889 16.6251 10.0133L16.926 9.98605C17.6096 9.84903 17.5275 9.35666 17.4728 9.02826L17.4728 9.02827ZM7.67853 6.73022C7.70582 6.67545 7.76059 6.53862 8.03425 6.48404H13.8616C14.1077 6.51133 14.1898 6.64816 14.1898 6.67564L15.1747 9.02845H6.66628L7.67853 6.73022ZM7.26805 11.983C6.85775 11.983 6.52933 11.6548 6.52933 11.2443C6.52933 10.834 6.85757 10.5056 7.26805 10.5056C7.67834 10.5056 8.00677 10.8338 8.00677 11.2443C8.00677 11.6548 7.67853 11.983 7.26805 11.983ZM14.5453 11.983C14.135 11.983 13.8066 11.6548 13.8066 11.2443C13.8066 10.834 14.1349 10.5056 14.5453 10.5056C14.9556 10.5056 15.2841 10.8338 15.2841 11.2443C15.3114 11.6548 14.9831 11.983 14.5453 11.983Z" fill="#3F1358"/>
</svg>
