<svg width="23" height="26" viewBox="0 0 23 26" fill="none" xmlns="http://www.w3.org/2000/svg">
<path d="M15.0633 22.0864C14.8445 23.9549 13.2556 25.4049 11.3281 25.4049C9.40068 25.4049 7.81172 23.9549 7.59293 22.0864H1.15238C0.540022 22.0864 0.0449219 21.5925 0.0449219 20.9814V19.6527C0.0449219 18.3098 1.1357 17.2191 2.47949 17.2191C2.59986 17.2191 2.69987 17.1191 2.69987 16.9971V11.6878C2.69987 7.90322 5.15513 4.61025 8.67314 3.47593V3.06019C8.67314 1.59441 9.86324 0.404938 11.3281 0.404938C12.7951 0.404938 13.9832 1.59196 13.9832 3.06019V3.47593C17.5008 4.61049 19.9564 7.90378 19.9564 11.6878V16.9971C19.9564 17.1215 20.054 17.2191 20.1768 17.2191C21.5185 17.2191 22.6114 18.3095 22.6114 19.6527V20.9814C22.6114 21.5898 22.1145 22.0864 21.5039 22.0864H15.0633ZM13.7217 22.0864H8.93458C9.14261 23.2191 10.1352 24.0774 11.3281 24.0774C12.5211 24.0774 13.5137 23.2191 13.7217 22.0864ZM21.2839 19.6527C21.2839 19.0434 20.786 18.5465 20.1767 18.5465C19.3208 18.5465 18.6288 17.8548 18.6288 16.9971V11.6878C18.6288 8.33713 16.3529 5.44018 13.1537 4.61702L12.6556 4.48893V3.0602C12.6556 2.32531 12.0624 1.73238 11.3281 1.73238C10.5963 1.73238 10.0006 2.32776 10.0006 3.0602V4.48893L9.50242 4.61702C6.30332 5.44018 4.02733 8.33619 4.02733 11.6878V16.9971C4.02733 17.852 3.33318 18.5465 2.47946 18.5465C1.86864 18.5465 1.37232 19.0431 1.37232 19.6527V20.7589H21.2837L21.2839 19.6527Z" fill="#3F1358"/>
</svg>
