<svg width="36" height="36" viewBox="0 0 36 36" fill="none" xmlns="http://www.w3.org/2000/svg">
<path d="M24.8323 16.8199H20.1683L20.5575 16.2868C21.293 15.29 21.6875 14.0695 21.6875 12.8169V11.3671C21.6875 9.8643 19.6832 9.4928 19.1502 10.8395L18.4679 12.5185C18.0128 13.652 17.2308 14.6058 16.2397 15.2619L14.4454 16.5109C14.3774 16.5582 14.3368 16.6358 14.3368 16.7187V25.0021C14.3368 25.1165 14.4135 25.2167 14.524 25.2465L16.8369 25.8707C17.6578 26.0839 18.5 26.1906 19.3475 26.1906H23.0681C23.7049 26.1906 24.2035 25.6555 24.2035 25.0179C24.2035 24.3729 23.6918 23.8452 23.0681 23.8452H23.6971C24.3385 23.8452 24.8271 23.3078 24.8271 22.6779C24.8271 22.0276 24.3207 21.5052 23.6971 21.5052H24.3261C24.9464 21.5052 25.4561 20.9776 25.4561 20.3326C25.4561 19.6875 24.9498 19.1599 24.3261 19.1599H24.8325C25.4545 19.1599 25.9679 18.6452 25.9679 17.9872C25.9678 17.3422 25.4614 16.8199 24.8324 16.8199L24.8323 16.8199Z" fill="url(#paint0_linear_1_1254)"/>
<path d="M13.0711 16.0389H11.805C10.6861 16.0389 9.77917 16.9459 9.77917 18.0647V23.6505C9.77917 24.7694 10.6861 25.6763 11.805 25.6763H13.0711C13.2109 25.6763 13.3243 25.563 13.3243 25.4231V16.2924C13.3243 16.1524 13.2109 16.039 13.0711 16.039V16.0389Z" fill="url(#paint1_linear_1_1254)"/>
<circle cx="17.8737" cy="18.0995" r="17.4308" fill="#801645" fill-opacity="0.1"/>
<defs>
<linearGradient id="paint0_linear_1_1254" x1="20.1524" y1="10.0084" x2="20.1524" y2="26.1906" gradientUnits="userSpaceOnUse">
<stop stop-color="#28145B"/>
<stop offset="1" stop-color="#BD1836"/>
</linearGradient>
<linearGradient id="paint1_linear_1_1254" x1="11.5517" y1="16.0389" x2="11.5517" y2="25.6763" gradientUnits="userSpaceOnUse">
<stop stop-color="#28145B"/>
<stop offset="1" stop-color="#BD1836"/>
</linearGradient>
</defs>
</svg>
