<svg width="59" height="59" viewBox="0 0 59 59" fill="none" xmlns="http://www.w3.org/2000/svg">
<g filter="url(#filter0_d_33_552)">
<circle cx="29.384" cy="25.3062" r="25" fill="white"/>
</g>
<path fill-rule="evenodd" clip-rule="evenodd" d="M23.6948 21.1684H22.4338C22.2735 21.1684 22.1431 21.2988 22.1431 21.4591V23.464C22.1431 23.6243 22.2735 23.7547 22.4338 23.7547H23.2432C23.2614 23.6844 23.2892 23.618 23.3146 23.5502C23.3271 23.5178 23.3353 23.4831 23.3493 23.4511C23.3989 23.3368 23.4575 23.2282 23.5257 23.1256C23.5412 23.1028 23.5602 23.0834 23.5764 23.061C23.6326 22.9834 23.6927 22.9084 23.7595 22.8392C23.79 22.8082 23.8231 22.7802 23.8551 22.7507C23.9147 22.6969 23.9752 22.6452 24.0409 22.5977C24.0792 22.5703 24.1183 22.5447 24.1587 22.5194C24.2255 22.4782 24.2943 22.4409 24.3657 22.4073C24.4086 22.3872 24.4504 22.3669 24.4944 22.3493C24.5735 22.3183 24.6553 22.2945 24.739 22.2733C24.7794 22.2629 24.8177 22.2501 24.8585 22.2424C24.9849 22.2179 25.1136 22.203 25.2465 22.203C25.3794 22.203 25.5083 22.2179 25.6345 22.2424C25.6753 22.2501 25.7136 22.2629 25.754 22.2733C25.8377 22.2945 25.9195 22.3183 25.9986 22.3493C26.0425 22.3669 26.0844 22.3872 26.1275 22.4073C26.1988 22.4409 26.2675 22.4782 26.3342 22.5194C26.3746 22.5447 26.414 22.5703 26.4523 22.5977C26.518 22.6452 26.5784 22.6969 26.6379 22.7507C26.6699 22.7802 26.7032 22.8082 26.7335 22.8392C26.8003 22.9084 26.8603 22.9834 26.9166 23.061C26.9327 23.0834 26.9518 23.1028 26.9675 23.1256C27.0357 23.2282 27.0941 23.3368 27.1437 23.4511C27.1577 23.4831 27.1661 23.5178 27.1784 23.5502C27.2037 23.618 27.2318 23.6844 27.2498 23.7547H31.5191C31.5371 23.6844 31.5652 23.618 31.5905 23.5502C31.6028 23.5178 31.6112 23.4831 31.6252 23.4511C31.6748 23.3368 31.7332 23.2282 31.8014 23.1256C31.8171 23.1028 31.8362 23.0834 31.8523 23.061C31.9086 22.9834 31.9686 22.9084 32.0354 22.8392C32.0657 22.8082 32.099 22.7802 32.131 22.7507C32.1905 22.6969 32.2509 22.6452 32.3166 22.5977C32.3549 22.5703 32.3943 22.5447 32.4347 22.5194C32.5014 22.4782 32.5701 22.4409 32.6414 22.4073C32.6845 22.3872 32.7264 22.3669 32.7703 22.3493C32.8494 22.3183 32.9312 22.2945 33.0149 22.2733C33.0553 22.2629 33.0936 22.2501 33.1344 22.2424C33.2606 22.2179 33.3895 22.203 33.5224 22.203C33.6553 22.203 33.784 22.2179 33.9104 22.2424C33.9512 22.2501 33.9895 22.2629 34.0299 22.2733C34.1136 22.2945 34.1954 22.3183 34.2745 22.3493C34.3184 22.3669 34.3603 22.3872 34.4032 22.4073C34.4746 22.4409 34.5434 22.4782 34.6102 22.5194C34.6505 22.5447 34.6897 22.5703 34.728 22.5977C34.7937 22.6452 34.8542 22.6969 34.9138 22.7507C34.9458 22.7802 34.9789 22.8082 35.0094 22.8392C35.0762 22.9084 35.1363 22.9834 35.1925 23.061C35.2087 23.0834 35.2277 23.1028 35.2432 23.1256C35.3114 23.2282 35.37 23.3368 35.4196 23.4511C35.4336 23.4831 35.4418 23.5178 35.4543 23.5502C35.4797 23.618 35.5075 23.6844 35.5257 23.7547H36.3351C36.4954 23.7547 36.6258 23.6243 36.6258 23.464V21.4591C36.6258 21.2988 36.4954 21.1684 36.3351 21.1684H23.6948Z" fill="url(#paint0_linear_33_552)"/>
<path fill-rule="evenodd" clip-rule="evenodd" d="M29.9021 20.1339H34.0694L32.4241 17.8301C32.2979 17.6531 32.092 17.5476 31.8742 17.5476H29.9021V20.1339Z" fill="url(#paint1_linear_33_552)"/>
<path fill-rule="evenodd" clip-rule="evenodd" d="M28.8672 17.5475H26.8951C26.6772 17.5475 26.4713 17.653 26.3451 17.83L24.6999 20.1338H28.8672V17.5475Z" fill="url(#paint2_linear_33_552)"/>
<path fill-rule="evenodd" clip-rule="evenodd" d="M25.2468 23.2373C24.6764 23.2373 24.2124 23.7012 24.2124 24.2719C24.2124 24.8423 24.6763 25.3063 25.2468 25.3063C25.8175 25.3063 26.2814 24.8423 26.2814 24.2719C26.2814 23.7012 25.8174 23.2373 25.2468 23.2373Z" fill="url(#paint3_linear_33_552)"/>
<path fill-rule="evenodd" clip-rule="evenodd" d="M33.5225 23.2373C32.9518 23.2373 32.4879 23.7012 32.4879 24.2719C32.4879 24.8423 32.9519 25.3063 33.5225 25.3063C34.0929 25.3063 34.5569 24.8423 34.5569 24.2719C34.5569 23.7012 34.093 23.2373 33.5225 23.2373Z" fill="url(#paint4_linear_33_552)"/>
<path fill-rule="evenodd" clip-rule="evenodd" d="M37.6603 21.4587V23.4641C37.6603 24.1945 37.066 24.7888 36.3351 24.7888H35.5179C35.2867 25.679 34.4839 26.3405 33.5224 26.3405C32.5608 26.3405 31.758 25.679 31.5268 24.7888H27.242C27.0107 25.679 26.208 26.3405 25.2464 26.3405C24.2849 26.3405 23.4821 25.679 23.2509 24.7888H22.4337C21.7028 24.7888 21.1085 24.1945 21.1085 23.4641V21.4587C21.1085 20.7284 21.7028 20.1337 22.4337 20.1337H23.429L25.5036 17.2287C25.8238 16.7809 26.3436 16.5128 26.8951 16.5128H31.8739C32.4253 16.5128 32.9451 16.7809 33.2653 17.2287L35.3399 20.1337H36.3352C37.0662 20.1337 37.6604 20.7285 37.6604 21.4587M37.5635 30.2621L34.9888 33.8667L34.9775 33.8828C34.9691 33.8941 34.9557 33.8983 34.9469 33.9091C34.916 33.9458 34.8858 33.9841 34.844 34.0125C34.8316 34.0203 34.818 34.0234 34.8057 34.0301C34.7917 34.0378 34.7779 34.0437 34.7628 34.0504C34.6967 34.0793 34.6272 34.0989 34.5575 34.0989H34.5565C34.5554 34.0989 34.5537 34.0985 34.5527 34.0985C34.5062 34.0985 34.4608 34.0902 34.4163 34.0778C34.4022 34.0736 34.3888 34.0674 34.3748 34.0623C34.3413 34.0494 34.3097 34.0339 34.2792 34.0142C34.2719 34.0094 34.2637 34.0079 34.2564 34.0027C34.2518 33.9991 34.2497 33.9939 34.2451 33.9903C34.2005 33.9566 34.1591 33.9179 34.1266 33.8688L33.0921 32.3171C32.9332 32.0791 32.9975 31.7585 33.2354 31.5997C33.4733 31.4413 33.7939 31.5055 33.9528 31.7435L34.572 32.672L36.7226 29.6604C36.8892 29.4282 37.2125 29.3744 37.4438 29.5405C37.676 29.7061 37.7302 30.0294 37.5637 30.2621M29.3844 29.961H21.6257C21.3396 29.961 21.1084 29.7297 21.1084 29.4439C21.1084 29.1582 21.3396 28.9266 21.6257 28.9266H29.3844C29.6705 28.9266 29.9017 29.1582 29.9017 29.4439C29.9017 29.7297 29.6705 29.961 29.3844 29.961ZM29.3844 32.5472H21.6257C21.3396 32.5472 21.1084 32.316 21.1084 32.0299C21.1084 31.7445 21.3396 31.5126 21.6257 31.5126H29.3844C29.6705 31.5126 29.9017 31.7445 29.9017 32.0299C29.9017 32.316 29.6705 32.5472 29.3844 32.5472ZM29.3844 35.1335H21.6257C21.3396 35.1335 21.1084 34.9022 21.1084 34.6162C21.1084 34.3305 21.3396 34.0989 21.6257 34.0989H29.3844C29.6705 34.0989 29.9017 34.3305 29.9017 34.6162C29.9017 34.9022 29.6705 35.1335 29.3844 35.1335ZM33.0051 14.4437H25.7638C25.1934 14.4437 24.7293 13.9795 24.7293 13.4091H19.5569V37.2023H39.2122V13.4091H34.0398C34.0398 13.9795 33.5757 14.4437 33.0053 14.4437" fill="url(#paint5_linear_33_552)"/>
<path fill-rule="evenodd" clip-rule="evenodd" d="M25.7638 12.8925V13.4096H33.0045L33.0049 10.3062H25.7637L25.7638 12.8925Z" fill="url(#paint6_linear_33_552)"/>
<path fill-rule="evenodd" clip-rule="evenodd" d="M40.7637 10.3063H34.0394V12.3753H39.2118C39.7822 12.3753 40.2462 12.8392 40.2462 13.4097V37.2028C40.2462 37.7733 39.7823 38.2373 39.2118 38.2373H19.5565C18.9861 38.2373 18.5221 37.7733 18.5221 37.2028V13.4097C18.5221 12.8392 18.986 12.3753 19.5565 12.3753H24.7289V10.3063H18.0046C17.1491 10.3063 16.4529 11.0025 16.4529 11.858V38.7545C16.4529 39.61 17.1491 40.3062 18.0046 40.3062H40.7633C41.6188 40.3062 42.315 39.61 42.315 38.7545V11.858C42.315 11.0025 41.6188 10.3063 40.7633 10.3063" fill="url(#paint7_linear_33_552)"/>
<defs>
<filter id="filter0_d_33_552" x="0.384033" y="0.306213" width="58" height="58" filterUnits="userSpaceOnUse" color-interpolation-filters="sRGB">
<feFlood flood-opacity="0" result="BackgroundImageFix"/>
<feColorMatrix in="SourceAlpha" type="matrix" values="0 0 0 0 0 0 0 0 0 0 0 0 0 0 0 0 0 0 127 0" result="hardAlpha"/>
<feOffset dy="4"/>
<feGaussianBlur stdDeviation="2"/>
<feComposite in2="hardAlpha" operator="out"/>
<feColorMatrix type="matrix" values="0 0 0 0 0.729412 0 0 0 0 0.0941176 0 0 0 0 0.215686 0 0 0 0.03 0"/>
<feBlend mode="normal" in2="BackgroundImageFix" result="effect1_dropShadow_33_552"/>
<feBlend mode="normal" in="SourceGraphic" in2="effect1_dropShadow_33_552" result="shape"/>
</filter>
<linearGradient id="paint0_linear_33_552" x1="29.3844" y1="21.1684" x2="29.3844" y2="23.7547" gradientUnits="userSpaceOnUse">
<stop stop-color="#34135B"/>
<stop offset="1" stop-color="#BA1837"/>
</linearGradient>
<linearGradient id="paint1_linear_33_552" x1="31.9857" y1="17.5476" x2="31.9857" y2="20.1339" gradientUnits="userSpaceOnUse">
<stop stop-color="#34135B"/>
<stop offset="1" stop-color="#BA1837"/>
</linearGradient>
<linearGradient id="paint2_linear_33_552" x1="26.7835" y1="17.5475" x2="26.7835" y2="20.1338" gradientUnits="userSpaceOnUse">
<stop stop-color="#34135B"/>
<stop offset="1" stop-color="#BA1837"/>
</linearGradient>
<linearGradient id="paint3_linear_33_552" x1="25.2469" y1="23.2373" x2="25.2469" y2="25.3063" gradientUnits="userSpaceOnUse">
<stop stop-color="#34135B"/>
<stop offset="1" stop-color="#BA1837"/>
</linearGradient>
<linearGradient id="paint4_linear_33_552" x1="33.5224" y1="23.2373" x2="33.5224" y2="25.3063" gradientUnits="userSpaceOnUse">
<stop stop-color="#34135B"/>
<stop offset="1" stop-color="#BA1837"/>
</linearGradient>
<linearGradient id="paint5_linear_33_552" x1="29.3846" y1="13.4091" x2="29.3846" y2="37.2023" gradientUnits="userSpaceOnUse">
<stop stop-color="#34135B"/>
<stop offset="1" stop-color="#BA1837"/>
</linearGradient>
<linearGradient id="paint6_linear_33_552" x1="29.3843" y1="10.3062" x2="29.3843" y2="13.4096" gradientUnits="userSpaceOnUse">
<stop stop-color="#34135B"/>
<stop offset="1" stop-color="#BA1837"/>
</linearGradient>
<linearGradient id="paint7_linear_33_552" x1="29.3839" y1="10.3063" x2="29.3839" y2="40.3062" gradientUnits="userSpaceOnUse">
<stop stop-color="#34135B"/>
<stop offset="1" stop-color="#BA1837"/>
</linearGradient>
</defs>
</svg>
