<svg width="59" height="59" viewBox="0 0 59 59" fill="none" xmlns="http://www.w3.org/2000/svg">
<g filter="url(#filter0_d_33_538)">
<circle cx="29.616" cy="25.3062" r="25" fill="white"/>
</g>
<path d="M39.1006 26.5764C40.0109 26.5005 40.6556 25.7798 40.6556 24.8698C40.6556 23.9216 38.949 23.125 38.949 23.125H37.1286L36.2183 20.0909C35.8011 18.6877 34.3599 17.5877 32.8807 17.512H19.9479C18.4688 17.588 17.0656 18.6877 16.6104 20.0909L15.7001 23.125L13.8799 23.1253C13.8799 23.1253 12.1733 23.9219 12.1733 24.87C12.1733 25.7803 12.894 26.5007 13.7284 26.5766C12.6286 27.1076 11.8699 28.1695 11.9458 29.497V35.2619C11.8699 36.0203 12.439 36.5513 13.425 36.5894V39.4339C13.1593 40.0027 14.1834 40.3061 14.1834 40.3061H16.0797C16.6485 40.3061 17.1417 39.8889 17.1417 39.282V36.5514H35.4221V39.282C35.4221 39.813 35.8771 40.3061 36.484 40.3061H38.6078C38.6078 40.3061 39.6697 40.0405 39.5181 39.4339V36.5894C40.3525 36.5516 40.9594 35.9825 40.9972 35.2619L40.997 29.4968C40.9591 28.2452 40.2004 27.1073 39.1006 26.5764L39.1006 26.5764ZM17.6723 20.4703C17.9757 19.4843 19.0755 18.6499 20.0996 18.6499H32.691C33.7151 18.6499 34.8148 19.4843 35.1183 20.4703L36.3699 25.0213L16.4207 25.0216L17.6723 20.4703ZM16.3826 32.3412C15.4344 32.3412 14.676 31.5827 14.676 30.6345C14.676 29.6864 15.4344 28.9279 16.3826 28.9279C17.3307 28.9279 18.0892 29.6864 18.0892 30.6345C18.0514 31.5827 17.3307 32.3412 16.3826 32.3412ZM30.9842 34.3512H22.0336V32.1137H30.9842V34.3512ZM36.5215 32.3412C35.5353 32.3412 34.7768 31.5827 34.7768 30.6345C34.7768 29.6864 35.5352 28.9279 36.4834 28.9279C37.4315 28.9279 38.19 29.6864 38.19 30.6345C38.2281 31.5446 37.4696 32.3412 36.5215 32.3412H36.5215Z" fill="url(#paint0_linear_33_538)"/>
<path d="M41.3379 10.3062C38.7968 10.3062 36.7487 12.3541 36.7487 14.8954C36.7487 17.4365 38.7965 19.4846 41.3379 19.4846C43.8789 19.4846 45.9271 17.4367 45.9271 14.8954C45.9271 12.3542 43.8411 10.3062 41.3379 10.3062ZM41.3379 18.6879C39.2519 18.6879 37.5452 16.9813 37.5452 14.8953C37.5452 12.8093 39.2519 11.1027 41.3379 11.1027C43.4239 11.1027 45.1305 12.8093 45.1305 14.8953C45.1305 16.9813 43.4239 18.6879 41.3379 18.6879Z" fill="url(#paint1_linear_33_538)"/>
<path d="M44.7895 10.5338C44.6379 10.7234 44.6758 10.951 44.8274 11.1025C45.8893 12.0886 46.458 13.4539 46.458 14.8952C46.458 16.3364 45.8893 17.6637 44.8274 18.6499C44.6758 18.8015 44.6758 19.0671 44.8274 19.2187C44.9033 19.2946 45.017 19.3325 45.1308 19.3325C45.2446 19.3325 45.3205 19.2946 45.3964 19.2187C46.6102 18.0808 47.2927 16.5258 47.2927 14.8573C47.2927 13.1885 46.6102 11.5957 45.3964 10.496C45.2067 10.3822 44.9411 10.3822 44.7895 10.5338L44.7895 10.5338Z" fill="url(#paint2_linear_33_538)"/>
<path d="M36.1805 14.8951C36.1805 13.4539 36.7493 12.1266 37.8112 11.1404C37.9628 10.9888 37.9628 10.7232 37.8112 10.5716C37.6596 10.42 37.394 10.42 37.2424 10.5716C36.0667 11.7094 35.3461 13.2645 35.3461 14.933C35.3461 16.5636 36.0286 18.1568 37.2424 19.2943C37.3183 19.3703 37.4321 19.4081 37.508 19.4081C37.6217 19.4081 37.7355 19.3703 37.8114 19.2943C37.963 19.1427 37.963 18.8771 37.7736 18.7255C36.7495 17.6639 36.1805 16.3364 36.1805 14.8951L36.1805 14.8951Z" fill="url(#paint3_linear_33_538)"/>
<path d="M40.693 13.1507L40.8067 15.0849C40.8446 15.4643 40.8446 15.4643 40.8446 15.5399V15.8434H41.8686V15.5778V15.0846L41.9824 13.1505C42.0202 12.8092 42.0202 12.5436 42.0583 12.3161H40.6171C40.6171 12.5061 40.6552 12.8473 40.693 13.1507L40.693 13.1507Z" fill="url(#paint4_linear_33_538)"/>
<path d="M40.694 16.2983H41.9455V17.474H40.694V16.2983Z" fill="url(#paint5_linear_33_538)"/>
<defs>
<filter id="filter0_d_33_538" x="0.615967" y="0.306213" width="58" height="58" filterUnits="userSpaceOnUse" color-interpolation-filters="sRGB">
<feFlood flood-opacity="0" result="BackgroundImageFix"/>
<feColorMatrix in="SourceAlpha" type="matrix" values="0 0 0 0 0 0 0 0 0 0 0 0 0 0 0 0 0 0 127 0" result="hardAlpha"/>
<feOffset dy="4"/>
<feGaussianBlur stdDeviation="2"/>
<feComposite in2="hardAlpha" operator="out"/>
<feColorMatrix type="matrix" values="0 0 0 0 0.729412 0 0 0 0 0.0941176 0 0 0 0 0.215686 0 0 0 0.03 0"/>
<feBlend mode="normal" in2="BackgroundImageFix" result="effect1_dropShadow_33_538"/>
<feBlend mode="normal" in="SourceGraphic" in2="effect1_dropShadow_33_538" result="shape"/>
</filter>
<linearGradient id="paint0_linear_33_538" x1="26.4682" y1="17.512" x2="26.4682" y2="40.3061" gradientUnits="userSpaceOnUse">
<stop stop-color="#34135B"/>
<stop offset="1" stop-color="#BA1837"/>
</linearGradient>
<linearGradient id="paint1_linear_33_538" x1="41.3379" y1="10.3062" x2="41.3379" y2="19.4846" gradientUnits="userSpaceOnUse">
<stop stop-color="#34135B"/>
<stop offset="1" stop-color="#BA1837"/>
</linearGradient>
<linearGradient id="paint2_linear_33_538" x1="45.9929" y1="10.4149" x2="45.9929" y2="19.3325" gradientUnits="userSpaceOnUse">
<stop stop-color="#34135B"/>
<stop offset="1" stop-color="#BA1837"/>
</linearGradient>
<linearGradient id="paint3_linear_33_538" x1="36.6355" y1="10.4579" x2="36.6355" y2="19.4081" gradientUnits="userSpaceOnUse">
<stop stop-color="#34135B"/>
<stop offset="1" stop-color="#BA1837"/>
</linearGradient>
<linearGradient id="paint4_linear_33_538" x1="41.3377" y1="12.3161" x2="41.3377" y2="15.8434" gradientUnits="userSpaceOnUse">
<stop stop-color="#34135B"/>
<stop offset="1" stop-color="#BA1837"/>
</linearGradient>
<linearGradient id="paint5_linear_33_538" x1="41.3198" y1="16.2983" x2="41.3198" y2="17.474" gradientUnits="userSpaceOnUse">
<stop stop-color="#34135B"/>
<stop offset="1" stop-color="#BA1837"/>
</linearGradient>
</defs>
</svg>
