<svg width="21" height="20" viewBox="0 0 21 20" fill="none" xmlns="http://www.w3.org/2000/svg">
<path fill-rule="evenodd" clip-rule="evenodd" d="M11.7693 8.03002H9.58807V9.32523H10.0277V13.9709H9.58807V15.2662H12.21V13.9709H11.7691L11.7693 8.03002ZM20.8989 10C20.8989 4.47716 16.4218 1.52588e-05 10.8989 1.52588e-05C5.37607 1.52588e-05 0.898926 4.47716 0.898926 10C0.898926 15.5229 5.37607 20 10.8989 20C16.4218 20 20.8989 15.5229 20.8989 10ZM10.8989 1.13216C15.7975 1.13216 19.7668 5.1018 19.7668 10C19.7668 14.8982 15.7971 18.8679 10.8989 18.8679C6.00071 18.8679 2.03107 14.8982 2.03107 10C2.03107 5.1018 6.00071 1.13216 10.8989 1.13216ZM9.88846 5.74537C9.88846 6.30298 10.3409 6.75502 10.8989 6.75502C11.4561 6.75502 11.9086 6.30302 11.9086 5.74537C11.9086 5.18734 11.4561 4.73491 10.8989 4.73491C10.3409 4.73449 9.88846 5.18691 9.88846 5.74537Z" fill="#264863"/>
</svg>
