<svg width="24" height="25" viewBox="0 0 24 25" fill="none" xmlns="http://www.w3.org/2000/svg">
<path d="M0.931152 23.5954C0.931152 23.8887 1.17111 24.1555 1.49125 24.1555H22.7445C23.0378 24.1555 23.3046 23.9155 23.3046 23.5954V7.59546H0.931343L0.931152 23.5954ZM17.4911 10.9021H19.9978V13.4088H17.4911V10.9021ZM17.4911 14.2088H19.9978V16.7155H17.4911V14.2088ZM14.1844 10.9021H16.6911V13.4088H14.1844V10.9021ZM14.1844 14.2088H16.6911V16.7155H14.1844V14.2088ZM14.1844 17.5154H16.6911V20.0221H14.1844V17.5154ZM10.8511 10.9021H13.3578V13.4088H10.8511V10.9021ZM10.8511 14.2088H13.3578V16.7155H10.8511V14.2088ZM10.8511 17.5153H13.3578V20.022H10.8511V17.5153ZM7.54436 10.902H10.0511V13.4087H7.54436V10.902ZM7.54436 14.2087H10.0511V16.7154H7.54436V14.2087ZM7.54436 17.5153H10.0511V20.022H7.54436V17.5153ZM4.23781 14.2087H6.74451V16.7154H4.23781V14.2087ZM4.23781 17.5153H6.74451V20.022H4.23781V17.5153Z" fill="#5B5B5B"/>
<path d="M17.0644 2.92871C17.5177 2.92871 17.891 2.55539 17.891 2.1021V0.982103C17.891 0.528795 17.5177 0.155487 17.0644 0.155487C16.6111 0.155487 16.2378 0.528809 16.2378 0.982103V2.07548C16.2378 2.55538 16.6111 2.92871 17.0644 2.92871Z" fill="#5B5B5B"/>
<path d="M22.7178 1.40881H18.7178V2.0221C18.7178 2.87552 18.1045 3.62219 17.2779 3.72876C16.2645 3.86213 15.4113 3.06209 15.4113 2.07548V1.40881H8.79798V2.04886C8.79798 2.90228 8.1847 3.64895 7.35809 3.75552C6.34471 3.88889 5.49147 3.08885 5.49147 2.10224V1.40881H1.49149C1.19815 1.40881 0.931396 1.64877 0.931396 1.96891V6.79555H23.278V1.94224C23.278 1.6489 23.038 1.40896 22.7179 1.40896L22.7178 1.40881Z" fill="#5B5B5B"/>
<path d="M7.14449 2.92871C7.59779 2.92871 7.9711 2.55539 7.9711 2.1021V0.982103C7.9711 0.528795 7.59778 0.155487 7.14449 0.155487C6.69118 0.155487 6.31787 0.528809 6.31787 0.982103V2.07548C6.31787 2.55538 6.69119 2.92871 7.14449 2.92871Z" fill="#5B5B5B"/>
</svg>
