<svg width="12" height="17" viewBox="0 0 12 17" fill="none" xmlns="http://www.w3.org/2000/svg">
<path d="M2.78043 12.0941C2.85319 12.2016 4.60839 14.868 7.17031 16.0952C7.24631 16.136 7.47418 16.2583 7.81363 16.3648C8.54088 16.5931 9.76257 16.7735 11.0191 16.0509C11.1823 15.9836 11.6183 15.782 11.8377 15.3094C12.0329 14.9137 12.018 14.4522 11.8092 13.9297C11.7979 13.9092 11.7866 13.8887 11.7753 13.8682L10.3902 11.4366C10.2025 11.0731 9.62358 10.4851 8.60745 10.7247C8.57027 10.7299 8.52835 10.7506 8.50729 10.7609L7.3363 11.3242C6.696 10.6492 5.09325 8.7416 4.65852 6.50661L5.49834 6.09333C5.6243 6.03134 6.18643 5.76769 6.39115 5.17193C6.49916 4.88425 6.55383 4.42758 6.2366 3.85414L4.87761 1.39677C4.86631 1.37634 4.85493 1.35577 4.82751 1.33029C4.56058 0.992693 3.77497 0.441427 2.8171 0.834653C2.71212 0.886225 0.442621 1.78171 0.245931 4.44468C0.147637 4.87067 -0.256005 7.40108 2.78044 12.0943L2.78043 12.0941ZM3.22498 1.741C3.65146 1.5703 3.93601 1.79489 4.01359 1.88701L5.35966 4.27269C5.46813 4.4929 5.50048 4.67235 5.45697 4.81097C5.38927 5.02665 5.15346 5.15569 5.06951 5.1971C5.05339 5.19204 5.04856 5.2074 5.04856 5.2074L3.89367 5.77573C3.70473 5.86871 3.60951 6.05886 3.63715 6.25369C4.0727 9.50436 6.78108 12.1315 6.90719 12.2387C7.07208 12.392 7.30803 12.4322 7.49709 12.3393L8.94108 11.6418C9.31748 11.5737 9.47764 11.7425 9.5068 11.8193C9.51809 11.8397 9.51809 11.8397 9.52947 11.8603L10.9031 14.2715C11.0067 14.5071 11.0133 14.7123 10.9536 14.8459C10.8164 15.0566 10.6112 15.1445 10.6112 15.1445C10.574 15.1497 10.5321 15.1705 10.5062 15.1962C9.10436 16.0423 7.70936 15.283 7.64949 15.2472L7.61714 15.2371C5.3154 14.1423 3.65571 11.6244 3.64441 11.6038C0.680812 7.01808 1.2252 4.71811 1.22354 4.66682C1.23323 4.63597 1.24287 4.60524 1.23643 4.56934C1.39321 2.48611 3.14085 1.78237 3.2249 1.74106L3.22498 1.741Z" fill="#7F7A7A"/>
</svg>
