<svg width="36" height="35" viewBox="0 0 36 35" fill="none" xmlns="http://www.w3.org/2000/svg">
<circle cx="18.0959" cy="17.513" r="17.4308" fill="#801645" fill-opacity="0.1"/>
<path d="M33.6532 19.8542V19.8292C33.6448 19.7237 33.6248 19.6192 33.5941 19.5179C33.1892 17.6492 31.7845 15.9613 29.916 15.4816C28.9941 15.2579 28.0573 15.0995 27.113 15.0083C26.3927 14.9716 25.7327 14.5947 25.3349 13.9931C23.675 11.62 21.3579 10.256 18.5173 9.74198C15.8537 9.31054 13.1376 9.31685 10.4762 9.76066C8.9368 9.96704 7.57211 10.8557 6.76093 12.1805C6.42139 12.7069 6.15681 13.2893 5.7892 13.7937C5.44358 14.3442 5.01257 14.8363 4.51227 15.2512C3.62268 15.8262 3.00287 16.7358 2.79326 17.774C2.66553 18.4622 2.58146 19.1567 2.50977 19.8542H2.52541C2.52063 19.9248 2.52063 19.9954 2.52541 20.066V21.6232C2.53388 21.961 2.81021 22.2306 3.14822 22.2304H5.48397C5.61366 20.9848 6.35443 19.8849 7.46019 19.2964C8.56595 18.7081 9.89199 18.7081 10.9977 19.2964C12.1034 19.8849 12.8442 20.9847 12.9739 22.2304H24.1138V22.0903C24.1518 20.7704 24.8778 19.5666 26.0277 18.9173C27.1775 18.2679 28.5835 18.2679 29.7333 18.9173C30.8832 19.5666 31.6094 20.7703 31.6474 22.0903V22.2304H33.0582C33.3962 22.2306 33.6725 21.961 33.681 21.6232V19.9352C33.6825 19.9083 33.6825 19.8812 33.681 19.8542L33.6532 19.8542ZM14.7803 15.6654C12.9116 15.6654 11.0929 15.7121 9.27724 15.6437C8.38353 15.6126 8.17476 15.1393 8.50494 14.292C9.60113 11.4892 11.3701 10.5736 14.7803 11.0967V15.6654ZM22.8187 15.6654C20.7912 15.6965 18.77 15.6654 16.6245 15.6654V11.1434C18.9633 10.7105 22.4733 12.5138 23.476 14.6501C23.7812 15.3199 23.6038 15.6685 22.8189 15.6811L22.8187 15.6654Z" fill="url(#paint0_linear_500_143)"/>
<path d="M9.19656 19.6796C8.4108 19.6813 7.65786 19.9953 7.10345 20.5522C6.54904 21.1092 6.23905 21.8639 6.24122 22.6497C6.24339 23.4354 6.55774 24.1884 7.11518 24.7421C7.67259 25.2961 8.42754 25.6059 9.2133 25.603C9.99906 25.6002 10.7518 25.2854 11.3053 24.7276C11.8588 24.1697 12.168 23.4148 12.1647 22.6288C12.1621 21.8442 11.848 21.0927 11.2914 20.5397C10.7348 19.9866 9.98121 19.6772 9.19656 19.6796ZM9.19656 23.9555V23.9558C8.84702 23.9558 8.51185 23.8167 8.26482 23.5695C8.0176 23.3221 7.879 22.9868 7.87922 22.6373C7.87965 22.2876 8.01869 21.9526 8.26634 21.7056C8.51377 21.4588 8.84916 21.3204 9.19875 21.3208C9.54829 21.3215 9.88329 21.461 10.13 21.7086C10.3766 21.9563 10.5148 22.2919 10.5141 22.6414C10.5106 22.9883 10.3703 23.3198 10.1235 23.5638C9.87675 23.8076 9.54348 23.944 9.19657 23.9431L9.19656 23.9555Z" fill="url(#paint1_linear_500_143)"/>
<path d="M30.8502 22.0965C30.8502 21.3108 30.538 20.5574 29.9823 20.0019C29.4266 19.4464 28.673 19.1345 27.8873 19.1347C27.1017 19.1351 26.3483 19.4475 25.7931 20.0034C25.2378 20.5591 24.9261 21.313 24.9268 22.0987C24.9272 22.8843 25.24 23.6376 25.7959 24.1927C26.3521 24.7477 27.1059 25.059 27.8914 25.0581C28.6768 25.0581 29.4297 24.7462 29.9848 24.1904C30.5396 23.635 30.8509 22.8816 30.8502 22.0965L30.8502 22.0965ZM26.5742 22.0965H26.574C26.5749 21.7464 26.715 21.4112 26.9638 21.1646C27.2123 20.918 27.5488 20.7805 27.8987 20.7825C28.2489 20.7844 28.5837 20.9256 28.8296 21.1748C29.0753 21.4242 29.2117 21.7611 29.2087 22.1111C29.2056 22.4613 29.0633 22.7958 28.8133 23.0407C28.5632 23.2857 28.2259 23.4211 27.8759 23.4169C27.5262 23.4163 27.1912 23.2768 26.9442 23.0292C26.6972 22.7815 26.5586 22.4463 26.5586 22.0965L26.5742 22.0965Z" fill="url(#paint2_linear_500_143)"/>
<defs>
<linearGradient id="paint0_linear_500_143" x1="18.0959" y1="9.42303" x2="18.0959" y2="22.2304" gradientUnits="userSpaceOnUse">
<stop stop-color="#2B145C"/>
<stop offset="1" stop-color="#BA1837"/>
</linearGradient>
<linearGradient id="paint1_linear_500_143" x1="9.20297" y1="19.6796" x2="9.20297" y2="25.603" gradientUnits="userSpaceOnUse">
<stop stop-color="#2B145C"/>
<stop offset="1" stop-color="#BA1837"/>
</linearGradient>
<linearGradient id="paint2_linear_500_143" x1="27.8885" y1="19.1347" x2="27.8885" y2="25.0581" gradientUnits="userSpaceOnUse">
<stop stop-color="#2B145C"/>
<stop offset="1" stop-color="#BA1837"/>
</linearGradient>
</defs>
</svg>
