<svg width="20" height="25" viewBox="0 0 20 25" fill="none" xmlns="http://www.w3.org/2000/svg">
<path d="M14.5441 1.96865L13.1879 0.60988L0.774902 0.609711V23.2509H2.13111V24.6097H19.8566V1.96891L14.5441 1.96865ZM17.1977 5.69933H13.4106V1.90709L13.472 1.96848L17.1977 5.69933ZM1.53462 22.4937V1.37007H12.6506V6.45726H17.7351V22.4937L2.13107 22.4939L1.53462 22.4937ZM19.0939 23.8525H2.89074V23.2537H18.4948V5.92237L17.8321 5.25967L15.304 2.72884H19.0937L19.0939 23.8525ZM5.8413 4.56594H2.79871V3.80592H5.8413V4.56594ZM10.6264 6.84088H2.79871V6.08086H10.6264V6.84088ZM2.79871 8.56047H16.1025V9.32048H2.79871V8.56047ZM2.79871 10.2263H16.1025V10.9863H2.79871V10.2263ZM2.79871 11.8922H16.1025V12.6522L2.79871 12.652V11.8922ZM2.79871 13.5578H16.1025V14.3179H2.79871V13.5578ZM2.79871 15.2237H16.1025V15.9837H2.79871V15.2237ZM2.79871 16.8895H16.1025V17.6496H2.79871V16.8895ZM2.79871 18.5554H16.1025V19.3154H2.79871V18.5554Z" fill="#3F1358"/>
</svg>
