<svg width="22" height="24" viewBox="0 0 22 24" fill="none" xmlns="http://www.w3.org/2000/svg">
<path d="M1.55509 18.7361H6.97815C7.06467 20.3804 8.42046 21.6785 10.0648 21.6785C11.7091 21.6785 13.0647 20.3804 13.1514 18.7361H18.6322C18.8917 18.7361 19.1225 18.5631 19.1803 18.3035C19.2381 18.0439 19.1515 17.7844 18.9207 17.6689C18.4881 17.4093 18.0553 16.9765 17.7092 16.3996C17.1033 15.4477 16.786 14.3227 16.7573 13.14V13.1112V9.27465C16.7573 6.39004 14.9399 3.93813 12.3726 2.98621C12.3438 1.71693 11.3054 0.678467 10.0071 0.678467C8.70912 0.678467 7.64166 1.71693 7.64166 3.01495C5.1321 3.99566 3.37249 6.41868 3.37249 9.2457V13.0245C3.37249 14.236 3.05517 15.39 2.42057 16.3707C2.04551 16.9476 1.64167 17.3804 1.20903 17.64C0.978239 17.7842 0.891717 18.0438 0.949466 18.2746C1.06476 18.5629 1.29556 18.736 1.55513 18.736L1.55509 18.7361ZM10.0647 20.5247C9.05497 20.5247 8.21853 19.7458 8.132 18.7363H11.9973C11.9108 19.717 11.0741 20.5247 10.0646 20.5247H10.0647ZM10.0357 1.83246C10.5548 1.83246 11.0164 2.17856 11.1894 2.6689C10.8434 2.61115 10.4683 2.58237 10.0932 2.58237C9.68941 2.58237 9.28555 2.61115 8.88171 2.69767C9.02618 2.20751 9.48758 1.83244 10.0357 1.83244L10.0357 1.83246ZM4.55495 9.27475C4.55495 6.21712 7.03572 3.73631 10.0934 3.73631C13.1511 3.73631 15.6318 6.21707 15.6318 9.27475V13.0248V13.0536C15.6318 13.4286 15.6606 13.8035 15.7184 14.1786H4.4684C4.52615 13.8035 4.55492 13.4286 4.55492 13.0536L4.55495 9.27475ZM3.42996 17.0055C3.74727 16.4864 4.00683 15.9093 4.20885 15.3324H15.8627C15.9204 15.3324 15.9492 15.3324 16.0069 15.3037C16.18 15.9095 16.4395 16.4864 16.7858 17.0055C16.9011 17.2075 17.0454 17.4094 17.1897 17.5824H3.05509C3.17039 17.3804 3.31446 17.2073 3.42995 17.0055L3.42996 17.0055Z" fill="#30145B"/>
<path d="M5.85315 9.41882H5.96844C6.22801 9.41882 6.48757 9.2168 6.54531 8.95723C6.89141 7.28416 8.39146 6.07263 10.0933 6.07263C10.4106 6.07263 10.6702 5.81306 10.6702 5.49575C10.6702 5.17844 10.4106 4.91888 10.0933 4.91888C7.84334 4.91888 5.85296 6.53421 5.42032 8.72667C5.334 9.04378 5.53581 9.36108 5.85313 9.41887L5.85315 9.41882Z" fill="#30145B"/>
<circle cx="16.5" cy="18.5" r="5.5" fill="#ED2A4D"/>
<path d="M15.125 21.25H19.2421V20.4171H16.7164L18.2999 19.325C18.87 18.9479 19.25 18.225 19.25 17.5179C19.25 16.4571 18.4266 15.75 17.1835 15.75C15.9801 15.75 15.1725 16.5907 15.1725 17.8479H16.0672C16.0672 17.0857 16.5106 16.5829 17.1835 16.5829C17.8565 16.5829 18.2999 16.96 18.2999 17.5179C18.2999 17.9579 18.0782 18.4057 17.7457 18.6336L15.125 20.4564V21.25Z" fill="white"/>
</svg>
