<svg width="18" height="21" viewBox="0 0 18 21" fill="none" xmlns="http://www.w3.org/2000/svg">
<path d="M8.87153 0C6.23741 0 4.09877 2.13856 4.09877 4.77276C4.09877 7.40697 6.23733 9.54553 8.87153 9.54553C11.5057 9.54553 13.6443 7.40697 13.6443 4.77276C13.6443 2.13856 11.5057 0 8.87153 0ZM8.87153 0.954635C10.979 0.954635 12.6896 2.66525 12.6896 4.77268C12.6896 6.88011 10.979 8.59073 8.87153 8.59073C6.76411 8.59073 5.05349 6.88011 5.05349 4.77268C5.05349 2.66525 6.76411 0.954635 8.87153 0.954635Z" fill="#30145B"/>
<path d="M8.87153 0C6.23741 0 4.09877 2.13856 4.09877 4.77276C4.09877 7.40697 6.23733 9.54553 8.87153 9.54553C11.5057 9.54553 13.6443 7.40697 13.6443 4.77276C13.6443 2.13856 11.5057 0 8.87153 0ZM8.87153 0.954635C10.979 0.954635 12.6896 2.66525 12.6896 4.77268C12.6896 6.88011 10.979 8.59073 8.87153 8.59073C6.76411 8.59073 5.05349 6.88011 5.05349 4.77268C5.05349 2.66525 6.76411 0.954635 8.87153 0.954635Z" stroke="black"/>
<path d="M6.6719 10.0617C6.6099 10.0355 6.54262 10.023 6.47535 10.0249C3.39365 10.1104 0.799737 12.3888 0.331338 15.453L0.3299 15.462C0.132869 16.9372 0.143256 18.4603 0.23354 19.8846V19.886C0.275087 20.5121 0.79521 20.999 1.42291 20.999C4.05016 21 13.6925 21 16.3201 21C16.9481 21 17.4687 20.5126 17.5102 19.886C17.5102 19.8855 17.5102 19.8846 17.5107 19.8841C17.5996 18.4581 17.6095 16.9322 17.3886 15.4578V15.4564C16.9195 12.3846 14.306 10.1052 11.2107 10.0467C11.1463 10.0457 11.0819 10.0576 11.0221 10.082C10.3583 10.3516 9.63188 10.5 8.87123 10.5C8.09221 10.5 7.34916 10.3444 6.67147 10.0619L6.6719 10.0617ZM6.40328 10.9829C7.16728 11.2869 8.00013 11.4543 8.87168 11.4543C9.72356 11.4543 10.5387 11.2945 11.288 11.0034C13.8772 11.0973 16.0509 13.0199 16.4453 15.5998C16.6557 17.0062 16.6433 18.462 16.5584 19.8228C16.5498 19.9477 16.4457 20.0451 16.3203 20.0451C13.6929 20.0451 4.0507 20.0451 1.42357 20.0441H1.42309C1.29797 20.0441 1.19442 19.9473 1.18627 19.8228C1.09998 18.4616 1.08751 17.0059 1.2756 15.5957C1.6703 13.0214 3.82614 11.1007 6.40222 10.9829L6.40328 10.9829Z" fill="#30145B"/>
<path d="M6.6719 10.0617C6.6099 10.0355 6.54262 10.023 6.47535 10.0249C3.39365 10.1104 0.799737 12.3888 0.331338 15.453L0.3299 15.462C0.132869 16.9372 0.143256 18.4603 0.23354 19.8846V19.886C0.275087 20.5121 0.79521 20.999 1.42291 20.999C4.05016 21 13.6925 21 16.3201 21C16.9481 21 17.4687 20.5126 17.5102 19.886C17.5102 19.8855 17.5102 19.8846 17.5107 19.8841C17.5996 18.4581 17.6095 16.9322 17.3886 15.4578V15.4564C16.9195 12.3846 14.306 10.1052 11.2107 10.0467C11.1463 10.0457 11.0819 10.0576 11.0221 10.082C10.3583 10.3516 9.63188 10.5 8.87123 10.5C8.09221 10.5 7.34916 10.3444 6.67147 10.0619L6.6719 10.0617ZM6.40328 10.9829C7.16728 11.2869 8.00013 11.4543 8.87168 11.4543C9.72356 11.4543 10.5387 11.2945 11.288 11.0034C13.8772 11.0973 16.0509 13.0199 16.4453 15.5998C16.6557 17.0062 16.6433 18.462 16.5584 19.8228C16.5498 19.9477 16.4457 20.0451 16.3203 20.0451C13.6929 20.0451 4.0507 20.0451 1.42357 20.0441H1.42309C1.29797 20.0441 1.19442 19.9473 1.18627 19.8228C1.09998 18.4616 1.08751 17.0059 1.2756 15.5957C1.6703 13.0214 3.82614 11.1007 6.40222 10.9829L6.40328 10.9829Z" stroke="black"/>
</svg>
