<svg width="36" height="36" viewBox="0 0 36 36" fill="none" xmlns="http://www.w3.org/2000/svg">
<circle cx="18.0959" cy="17.6237" r="17.4308" fill="#801645" fill-opacity="0.1"/>
<path d="M21.2128 21.1984C21.0085 21.5565 20.787 21.8976 20.5656 22.2216C21.9962 22.5457 22.8478 23.1084 22.8478 23.5348C22.8478 24.1657 20.9573 25.1207 18.096 25.1207C15.2346 25.1207 13.3441 24.1657 13.3441 23.5348C13.3441 23.1084 14.1957 22.5627 15.6263 22.2216C15.4049 21.8976 15.1835 21.5565 14.9791 21.1984C13.344 21.6247 12.1689 22.3921 12.1689 23.5347C12.1689 25.3423 15.1495 26.2973 18.096 26.2973C21.0424 26.2973 24.023 25.3423 24.023 23.5347C24.023 22.3922 22.8478 21.6247 21.2128 21.1984Z" fill="url(#paint0_linear_26_341)"/>
<path d="M18.6234 23.0574C19.8327 21.2668 22.728 16.7817 22.728 14.7523C22.728 12.1773 20.6502 10.0967 18.0954 10.0967C15.5407 10.0967 13.4458 12.1773 13.4458 14.7523C13.4458 16.7817 16.3583 21.2668 17.5675 23.0574C17.8229 23.4156 18.3679 23.4156 18.6234 23.0575L18.6234 23.0574ZM15.9324 14.7523C15.9324 13.5586 16.9033 12.5865 18.0955 12.5865C19.2877 12.5865 20.2585 13.5586 20.2585 14.7523C20.2585 15.9461 19.2877 16.9012 18.0955 16.9012C16.9033 16.9012 15.9324 15.929 15.9324 14.7523Z" fill="url(#paint1_linear_26_341)"/>
<defs>
<linearGradient id="paint0_linear_26_341" x1="18.096" y1="21.1984" x2="18.096" y2="26.2973" gradientUnits="userSpaceOnUse">
<stop stop-color="#30145A"/>
<stop offset="1" stop-color="#9C173E"/>
</linearGradient>
<linearGradient id="paint1_linear_26_341" x1="18.0869" y1="10.0967" x2="18.0869" y2="23.3261" gradientUnits="userSpaceOnUse">
<stop stop-color="#30145A"/>
<stop offset="1" stop-color="#9C173E"/>
</linearGradient>
</defs>
</svg>
