<svg width="29" height="25" viewBox="0 0 29 25" fill="none" xmlns="http://www.w3.org/2000/svg">
<path d="M0.656581 13.3093C0.347879 13.3093 0.0391846 13.0006 0.0391846 12.6919C0.0391846 12.306 0.347887 11.9973 0.656581 11.9973H19.3315L13.8527 6.59516C13.6211 6.36364 13.6211 5.90058 13.8527 5.66907C14.1614 5.43754 14.5472 5.43754 14.7787 5.66907L21.338 12.2283C21.5695 12.4598 21.5695 12.8457 21.338 13.1544L14.7787 19.6365C14.5472 19.9452 14.1614 19.9452 13.8527 19.6365C13.6211 19.405 13.6211 19.0191 13.8527 18.7104L19.3315 13.3083H0.656581V13.3093Z" fill="#3F1358"/>
<path d="M18.7917 5.5153C18.7917 5.824 18.483 6.13269 18.0971 6.13269C17.7884 6.13269 17.4797 5.82399 17.4797 5.5153V1.27096C17.4797 0.962259 17.7884 0.653564 18.1743 0.653564H27.8977C28.2836 0.653564 28.5923 0.962267 28.5923 1.34815V24.0362C28.5923 24.3449 28.2836 24.6536 27.8977 24.6536H18.0972C17.7885 24.6536 17.4798 24.3449 17.4798 23.959V19.7918C17.4798 19.4831 17.7885 19.1744 18.0972 19.1744C18.4831 19.1744 18.7918 19.4831 18.7918 19.7918V23.3416H27.2804V1.96541H18.7918L18.7917 5.5153Z" fill="#3F1358"/>
</svg>
