<svg width="19" height="21" viewBox="0 0 19 21" fill="none" xmlns="http://www.w3.org/2000/svg">
<path d="M0.62296 18.0576H6.04602C6.13255 19.702 7.48833 21 9.13266 21C10.777 21 12.1325 19.702 12.2193 18.0576H17.7C17.9596 18.0576 18.1904 17.8846 18.2482 17.625C18.3059 17.3655 18.2194 17.1059 17.9886 16.9904C17.556 16.7309 17.1232 16.2981 16.7771 15.7211C16.1712 14.7692 15.8539 13.6442 15.8251 12.4615V12.4327V8.59618C15.8251 5.71158 14.0078 3.25966 11.4405 2.30774C11.4117 1.03846 10.3732 0 9.07501 0C7.77699 0 6.70953 1.03846 6.70953 2.33648C4.19997 3.3172 2.44036 5.74022 2.44036 8.56723V12.346C2.44036 13.5576 2.12304 14.7115 1.48844 15.6922C1.11338 16.2691 0.709544 16.7019 0.276905 16.9615C0.0461103 17.1058 -0.0404121 17.3653 0.0173367 17.5961C0.132634 17.8845 0.363428 18.0575 0.623001 18.0575L0.62296 18.0576ZM9.13255 19.8463C8.12284 19.8463 7.28641 19.0674 7.19987 18.0579H11.0652C10.9787 19.0386 10.142 19.8463 9.1325 19.8463H9.13255ZM9.10358 1.154C9.62271 1.154 10.0843 1.50009 10.2573 1.99043C9.91123 1.93268 9.53617 1.90391 9.16112 1.90391C8.75728 1.90391 8.35343 1.93268 7.94958 2.0192C8.09405 1.52905 8.55545 1.15398 9.10353 1.15398L9.10358 1.154ZM3.62282 8.59629C3.62282 5.53865 6.10359 3.05784 9.16127 3.05784C12.219 3.05784 14.6997 5.5386 14.6997 8.59629V12.3463V12.3751C14.6997 12.7502 14.7285 13.125 14.7862 13.5001H3.53627C3.59402 13.125 3.62279 12.7502 3.62279 12.3751L3.62282 8.59629ZM2.49783 16.327C2.81514 15.8079 3.0747 15.2308 3.27672 14.654H14.9305C14.9883 14.654 15.0171 14.654 15.0748 14.6252C15.2479 15.2311 15.5074 15.8079 15.8537 16.3271C15.969 16.5291 16.1133 16.7309 16.2575 16.9039H2.12296C2.23826 16.7019 2.38233 16.5289 2.49782 16.3271L2.49783 16.327Z" fill="url(#paint0_linear_1008_798)"/>
<path d="M4.92111 8.74041H5.03641C5.29598 8.74041 5.55553 8.53839 5.61328 8.27883C5.95937 6.60575 7.45943 5.39422 9.16129 5.39422C9.47861 5.39422 9.73816 5.13465 9.73816 4.81735C9.73816 4.50003 9.4786 4.24048 9.16129 4.24048C6.9113 4.24048 4.92092 5.85581 4.48828 8.04826C4.40196 8.36538 4.60378 8.68267 4.92109 8.74047L4.92111 8.74041Z" fill="url(#paint1_linear_1008_798)"/>
<circle cx="14.8701" cy="4.35864" r="3.5" fill="#DB1616" stroke="white"/>
<defs>
<linearGradient id="paint0_linear_1008_798" x1="10.6535" y1="56.91" x2="10.6535" y2="-9.03" gradientUnits="userSpaceOnUse">
<stop offset="0.0729798" stop-color="#E48260"/>
<stop offset="1" stop-color="#ED4120"/>
</linearGradient>
<linearGradient id="paint1_linear_1008_798" x1="7.54196" y1="16.4354" x2="7.54196" y2="2.30548" gradientUnits="userSpaceOnUse">
<stop offset="0.0729798" stop-color="#E48260"/>
<stop offset="1" stop-color="#ED4120"/>
</linearGradient>
</defs>
</svg>
