<svg width="19" height="22" viewBox="0 0 19 22" fill="none" xmlns="http://www.w3.org/2000/svg">
<path d="M0.752843 18.6991H6.17591C6.26243 20.3434 7.61821 21.6414 9.26254 21.6414C10.9069 21.6414 12.2624 20.3434 12.3492 18.6991H17.8299C18.0895 18.6991 18.3203 18.526 18.3781 18.2665C18.4358 18.0069 18.3493 17.7473 18.1185 17.6318C17.6859 17.3723 17.2531 16.9395 16.907 16.3626C16.3011 15.4106 15.9838 14.2856 15.955 13.1029V13.0741V9.2376C15.955 6.35299 14.1377 3.90108 11.5704 2.94916C11.5416 1.67988 10.5031 0.641418 9.20489 0.641418C7.90687 0.641418 6.83941 1.67988 6.83941 2.9779C4.32985 3.95862 2.57024 6.38163 2.57024 9.20865V12.9874C2.57024 14.199 2.25293 15.3529 1.61832 16.3336C1.24326 16.9105 0.839427 17.3434 0.406788 17.6029C0.175993 17.7472 0.0894707 18.0068 0.14722 18.2375C0.262516 18.5259 0.493311 18.6989 0.752884 18.6989L0.752843 18.6991ZM9.26244 20.4877C8.25272 20.4877 7.41629 19.7088 7.32975 18.6993H11.1951C11.1086 19.68 10.2719 20.4877 9.26239 20.4877H9.26244ZM9.23346 1.79542C9.75259 1.79542 10.2142 2.14151 10.3872 2.63185C10.0411 2.5741 9.66605 2.54533 9.291 2.54533C8.88717 2.54533 8.48331 2.5741 8.07946 2.66062C8.22394 2.17047 8.68533 1.7954 9.23341 1.7954L9.23346 1.79542ZM3.75271 9.23771C3.75271 6.18007 6.23347 3.69926 9.29115 3.69926C12.3488 3.69926 14.8296 6.18002 14.8296 9.23771V12.9877V13.0165C14.8296 13.3916 14.8584 13.7665 14.9161 14.1415H3.66615C3.7239 13.7665 3.75268 13.3916 3.75268 13.0165L3.75271 9.23771ZM2.62771 16.9685C2.94503 16.4493 3.20458 15.8723 3.40661 15.2954H15.0604C15.1182 15.2954 15.1469 15.2954 15.2047 15.2666C15.3777 15.8725 15.6373 16.4494 15.9836 16.9685C16.0989 17.1705 16.2432 17.3723 16.3874 17.5453H2.25284C2.36814 17.3433 2.51221 17.1703 2.6277 16.9685L2.62771 16.9685Z" fill="#30145B"/>
<path d="M5.05087 9.38177H5.16617C5.42574 9.38177 5.68529 9.17975 5.74304 8.92018C6.08913 7.24711 7.58919 6.03558 9.29105 6.03558C9.60837 6.03558 9.86793 5.77601 9.86793 5.45871C9.86793 5.14139 9.60836 4.88184 9.29105 4.88184C7.04106 4.88184 5.05068 6.49717 4.61804 8.68962C4.53172 9.00673 4.73354 9.32403 5.05085 9.38182L5.05087 9.38177Z" fill="#30145B"/>
</svg>
