<svg width="25" height="25" viewBox="0 0 25 25" fill="none" xmlns="http://www.w3.org/2000/svg">
<path d="M16.2728 12.2778V1.57056C16.2736 1.5075 16.2488 1.44667 16.2042 1.40203C16.1594 1.3572 16.0987 1.33246 16.0355 1.3332H1.61903C1.55579 1.33246 1.49495 1.3572 1.45031 1.40203C1.40566 1.44667 1.38074 1.5075 1.38167 1.57056V20.2115C1.38092 20.2747 1.40566 20.3354 1.45031 20.3802C1.49495 20.4249 1.55578 20.4496 1.61903 20.4489H12.161C12.2631 20.8157 12.398 21.1727 12.5635 21.5155H1.61918H1.61937C1.27337 21.5155 0.941712 21.378 0.697271 21.1336C0.452654 20.889 0.315371 20.5573 0.315186 20.2115V1.57056C0.315372 1.22475 0.452654 0.89305 0.697271 0.648657C0.941703 0.40404 1.2734 0.266571 1.61937 0.266571H16.0358C16.3816 0.266571 16.7133 0.40404 16.9579 0.648657C17.2023 0.893088 17.3398 1.22478 17.3398 1.57056V11.9739C16.9763 12.0448 16.6193 12.1466 16.2732 12.2779L16.2728 12.2778ZM14.1875 3.68638H6.51049V4.64624H14.1875V3.68638ZM14.1875 7.04889H6.51049V8.00874H14.1875V7.04889ZM14.1875 10.4114H6.51049V11.3712H14.1875V10.4114ZM13.926 13.7741H6.5099V14.7341H13.1131C13.3532 14.3891 13.6256 14.0676 13.9264 13.7741H13.926ZM6.5099 18.097H11.9154V18.0968C11.9377 17.7737 11.985 17.4528 12.0568 17.137H6.50985L6.5099 18.097ZM4.70291 2.86101H2.97535V4.58857H4.70291V2.86101ZM4.70291 6.22351L2.97535 6.2237V7.95126H4.70291V6.22351ZM4.70291 9.58601L2.97535 9.5862V11.3138H4.70291V9.58601ZM4.70291 12.9485L2.97535 12.9487V14.6763H4.70291V12.9485ZM2.97535 18.0388H4.70291V16.3112H2.97535V18.0388ZM16.5436 18.1217C16.4438 18.0215 16.308 17.9649 16.1664 17.9647C16.0248 17.9647 15.8888 18.0209 15.7888 18.121C15.6887 18.2211 15.6325 18.357 15.6325 18.4986C15.6327 18.6402 15.6892 18.776 15.7895 18.8759L17.9163 21.0024V21.0026C18.0164 21.1027 18.152 21.1589 18.2934 21.1589C18.4349 21.1589 18.5705 21.1027 18.6706 21.0026L24.1599 15.5133C24.3675 15.3048 24.3672 14.9677 24.1592 14.7597C23.9512 14.5518 23.6142 14.5514 23.4058 14.759L18.2937 19.8712L16.5436 18.1217ZM23.6683 17.5129C23.3911 17.5685 23.1999 17.8232 23.2237 18.1048C23.3725 19.4992 22.879 20.8857 21.8825 21.8723C20.8858 22.8592 19.4945 23.3387 18.1016 23.1759C16.7088 23.0132 15.4656 22.2254 14.7234 21.0356C13.9814 19.8456 13.8208 18.3827 14.2874 17.0603C14.7539 15.7377 15.7966 14.6993 17.121 14.2384C18.4455 13.7774 19.9079 13.9441 21.0946 14.6911C21.4062 14.8874 21.7862 14.9045 21.9777 14.6805L21.9775 14.6807C22.0685 14.5514 22.1003 14.3896 22.0649 14.2356C22.0298 14.0815 21.9306 13.9496 21.7926 13.8728C20.3506 12.91 18.5474 12.6594 16.8976 13.1924C15.2476 13.7255 13.9319 14.9837 13.3256 16.6082C12.7193 18.2327 12.8892 20.0454 13.7867 21.529C14.6841 23.0127 16.2108 24.0045 17.9311 24.2218C19.6512 24.4391 21.3766 23.8578 22.6146 22.6438C23.8527 21.4298 24.4679 19.7163 24.2844 17.9921C24.274 17.8435 24.2009 17.7064 24.0834 17.615C23.9658 17.5235 23.8149 17.4865 23.6683 17.5129L23.6683 17.5129Z" fill="#3F1358"/>
</svg>
