<svg width="22" height="20" viewBox="0 0 22 20" fill="none" xmlns="http://www.w3.org/2000/svg">
<path d="M15.1466 15.5538C13.7238 14.7326 12.5519 13.4815 11.7065 12.0283C10.7672 10.4138 10.2265 8.53884 10.1896 6.72119C10.1848 6.45811 10.3687 6.23508 10.6171 6.18278C11.462 6.00236 12.2905 5.75347 13.0923 5.43842C13.8005 5.16023 14.4875 4.83155 15.1463 4.45453V1.91937C15.1463 1.69391 15.0486 1.4875 14.8913 1.3376C14.7267 1.18074 14.4967 1.08298 14.2424 1.08298H2.59655C2.34193 1.08298 2.11222 1.18074 1.9477 1.3376C1.79009 1.4875 1.69232 1.69406 1.69232 1.91937V18.0797C1.69232 18.3051 1.79009 18.5115 1.9477 18.6614C2.11226 18.8183 2.34193 18.916 2.59655 18.916H14.2424C14.4967 18.916 14.7267 18.8183 14.8913 18.6614C15.0486 18.5115 15.1463 18.305 15.1463 18.0797V15.5535L15.1466 15.5538ZM13.6603 10.5257C13.464 10.3002 13.4879 9.95808 13.7134 9.76195C13.9388 9.56566 14.2809 9.58954 14.4771 9.81499L15.4969 10.9872L17.401 7.51271C17.5446 7.25129 17.8736 7.15548 18.1351 7.29904C18.3966 7.44259 18.4924 7.77157 18.3488 8.03315L16.0863 12.1619C16.0553 12.2264 16.011 12.286 15.9534 12.3361C15.728 12.5324 15.3859 12.5086 15.1897 12.2831L13.6603 10.5257ZM4.05427 4.14858C3.75523 4.14858 3.51254 3.90605 3.51254 3.60685C3.51254 3.3078 3.75507 3.06511 4.05427 3.06511H12.7849C13.0839 3.06511 13.3266 3.30764 13.3266 3.60685C13.3266 3.90589 13.0841 4.14858 12.7849 4.14858H4.05427ZM4.05427 16.9341C3.75523 16.9341 3.51254 16.6915 3.51254 16.3923C3.51254 16.0933 3.75507 15.8506 4.05427 15.8506H12.7849C13.0839 15.8506 13.3266 16.0931 13.3266 16.3923C13.3266 16.6914 13.0841 16.9341 12.7849 16.9341H4.05427ZM4.05427 13.7375C3.75523 13.7375 3.51254 13.495 3.51254 13.1958C3.51254 12.8967 3.75507 12.654 4.05427 12.654H10.2484C10.5474 12.654 10.7901 12.8965 10.7901 13.1958C10.7901 13.4948 10.5476 13.7375 10.2484 13.7375H4.05427ZM4.05427 10.5415C3.75523 10.5415 3.51254 10.299 3.51254 9.99978C3.51254 9.70074 3.75507 9.45805 4.05427 9.45805H8.77103C9.07008 9.45805 9.31276 9.70058 9.31276 9.99978C9.31276 10.2988 9.07023 10.5415 8.77103 10.5415H4.05427ZM4.05427 7.34524C3.75523 7.34524 3.51254 7.10271 3.51254 6.80351C3.51254 6.50446 3.75507 6.26178 4.05427 6.26178H8.37645C8.6755 6.26178 8.91818 6.50431 8.91818 6.80351C8.91818 7.10256 8.67565 7.34524 8.37645 7.34524H4.05427ZM16.2301 4.45465C16.8892 4.83121 17.5765 5.16032 18.2844 5.43854C19.0865 5.75345 19.915 6.00279 20.7599 6.18185C21.0305 6.23897 21.2105 6.49012 21.1862 6.7591C21.1424 8.56503 20.6031 10.4253 19.6702 12.0287C18.8249 13.482 17.6528 14.7329 16.2301 15.5537V18.0802C16.2301 18.6124 16.0023 19.0959 15.6362 19.445C15.2771 19.7871 14.7833 20 14.2428 20H2.59693C2.05597 20 1.56244 19.7871 1.20352 19.445C0.836931 19.0959 0.609375 18.613 0.609375 18.0802V1.91987C0.609375 1.38719 0.836795 0.904102 1.20352 0.555055C1.56256 0.21294 2.05608 1.52588e-05 2.59693 1.52588e-05H14.2428C14.7835 1.52588e-05 15.2773 0.212929 15.6362 0.555055C16.0023 0.904117 16.2301 1.38765 16.2301 1.91987V4.45503L16.2301 4.45465ZM12.6415 11.487C13.3971 12.7863 14.436 13.8991 15.6884 14.6212C16.9408 13.8992 17.9796 12.7864 18.7352 11.4873C19.5099 10.1556 19.9849 8.63392 20.0887 7.13847C19.3401 6.95805 18.6054 6.72656 17.8908 6.4458C17.135 6.14901 16.3986 5.79555 15.6884 5.3891C14.9786 5.79575 14.2422 6.14905 13.4861 6.4458C12.7716 6.72641 12.0371 6.95805 11.2882 7.13847C11.3919 8.63369 11.8666 10.1554 12.6415 11.487V11.487Z" fill="#264863"/>
</svg>
