<svg width="16" height="20" viewBox="0 0 16 20" fill="none" xmlns="http://www.w3.org/2000/svg">
<path d="M11.7146 -1.52588e-05H1.11348C0.696329 -1.52588e-05 0.328125 0.343531 0.328125 0.785342V19.2146C0.328125 19.6318 0.671671 20 1.11348 20H14.6839C15.1011 20 15.4693 19.6564 15.4693 19.2146L15.4691 3.80372L11.7146 -1.52588e-05ZM11.5674 1.2516L14.4141 4.14719H11.5674V1.2516ZM1.30982 18.9938V0.981659H10.5858V5.12891H14.4631V18.9938L1.30982 18.9938Z" fill="#264863"/>
<path d="M12.0825 7.90184H3.68997C3.42002 7.90184 3.19922 8.12266 3.19922 8.39259C3.19922 8.66253 3.42004 8.88334 3.68997 8.88334H12.0825C12.3525 8.88334 12.5733 8.66253 12.5733 8.39259C12.5735 8.12282 12.3526 7.90184 12.0827 7.90184H12.0825Z" fill="#264863"/>
<path d="M12.0825 10.2822H3.68997C3.42002 10.2822 3.19922 10.503 3.19922 10.7729C3.19922 11.0429 3.42004 11.2637 3.68997 11.2637H12.0825C12.3525 11.2637 12.5733 11.0429 12.5733 10.7729C12.5735 10.5032 12.3526 10.2822 12.0827 10.2822H12.0825Z" fill="#264863"/>
<path d="M12.0825 12.638H3.68997C3.42002 12.638 3.19922 12.8588 3.19922 13.1287C3.19922 13.3987 3.42004 13.6195 3.68997 13.6195H12.0825C12.3525 13.6195 12.5733 13.3987 12.5733 13.1287C12.5735 12.8588 12.3526 12.638 12.0827 12.638H12.0825Z" fill="#264863"/>
<path d="M9.38317 15.0183H3.68997C3.42002 15.0183 3.19922 15.2392 3.19922 15.5091C3.19922 15.779 3.42004 15.9998 3.68997 15.9998H9.38317C9.65311 15.9998 9.87392 15.779 9.87392 15.5091C9.87392 15.2392 9.6531 15.0183 9.38317 15.0183Z" fill="#264863"/>
</svg>
