<svg width="20" height="17" viewBox="0 0 20 17" fill="none" xmlns="http://www.w3.org/2000/svg">
    <defs>
        <linearGradient id="paint0_linear_1008_637" x1="12.0186" y1="16.1784" x2="13.1907"
            y2="4.40271" gradientUnits="userSpaceOnUse">
            <stop stop-color="#E88B6B" />
            <stop offset="1" stop-color="#ED4120" />
        </linearGradient>
        <linearGradient id="paint1_linear_1008_637" x1="11.1631" y1="13.065" x2="15.449"
            y2="-3.26823" gradientUnits="userSpaceOnUse">
            <stop stop-color="#E88B6B" />
            <stop offset="1" stop-color="#ED4120" />
        </linearGradient>
    </defs>
    <path
        d="M18.6668 7.42171C18.1696 7.42171 17.7803 7.81081 17.7803 8.30822V14.4055H2.49398V8.2866C2.49398 7.78935 2.10487 7.40009 1.60746 7.40009C1.11021 7.40009 0.720947 7.78919 0.720947 8.2866V15.2919C0.720947 15.7892 1.11006 16.1784 1.60746 16.1784H18.6667C19.164 16.1784 19.5532 15.7893 19.5532 15.2919V8.2866C19.5532 7.81093 19.164 7.42167 18.6667 7.42167L18.6668 7.42171Z"
        fill="url(#paint0_linear_1008_637)" />
    <path
        d="M10.7316 0.438027C10.71 0.41646 10.6883 0.394742 10.6452 0.373175C10.6236 0.373175 10.6236 0.351608 10.5803 0.32989C10.4506 0.221752 10.2776 0.178467 10.1047 0.178467C9.99653 0.178467 9.86683 0.200034 9.75869 0.243319C9.65055 0.286604 9.54242 0.351457 9.456 0.416309L5.13172 4.78383C4.95873 4.95682 4.87231 5.19467 4.87231 5.43251C4.87231 5.67034 4.98045 5.8649 5.13172 6.01632C5.30471 6.18931 5.49927 6.27573 5.75867 6.27573C6.01807 6.27573 6.23434 6.18931 6.38561 6.01632L9.19643 3.18396V12.1785C9.19643 12.6757 9.58554 13.065 10.0829 13.065C10.5802 13.065 10.9695 12.6759 10.9695 12.1785L10.9696 3.18396L13.8453 6.01632C14.0182 6.18931 14.2128 6.27573 14.4722 6.27573C14.7316 6.27573 14.9479 6.18931 15.0991 6.01632C15.2721 5.84333 15.3585 5.60548 15.3585 5.36764C15.3585 5.1298 15.2504 4.93525 15.0991 4.78383L10.7316 0.438027Z"
        fill="url(#paint1_linear_1008_637)" />

</svg>
